<?xml version="1.0" encoding="utf-8"?>
<svg viewBox="0 0 825.2 591.4" xmlns="http://www.w3.org/2000/svg">
  <path d="M 543.213 403.012 C 542.781 398.208 546.799 394.183 551.604 394.603 L 559.788 378.902 L 570.543 381.547 L 558.675 403.558 C 557.758 409.486 550.769 412.197 546.096 408.439 C 544.431 407.102 543.388 405.141 543.213 403.012 Z" style="fill: rgb(255, 219, 172);"/>
  <polygon points="592.061 555.974 582.987 555.973 578.67 520.97 592.064 520.971 592.061 555.974" style="fill: rgb(255, 219, 172);"/>
  <path d="M 594.376 564.77 L 565.115 564.769 L 565.115 564.399 C 565.115 558.109 570.214 553.01 576.504 553.009 L 576.505 553.009 L 594.376 553.01 L 594.376 564.77 Z" fill="#2f2e41" style=""/>
  <polygon points="665.05 549.195 656.295 551.581 642.918 518.947 655.841 515.424 665.05 549.195" style="fill: rgb(255, 219, 172);"/>
  <path d="M 669.597 557.072 L 641.366 564.77 L 641.269 564.413 C 639.615 558.345 643.192 552.083 649.261 550.428 L 666.504 545.726 L 669.597 557.072 Z" fill="#2f2e41" style=""/>
  <polygon points="575.495 404.769 570.968 473.511 580.693 550.635 596.621 545.775 597.291 476.865 610.032 437.128 647.757 543.259 665.025 536.887 650.775 467.979 642.727 403.26 575.495 404.769" style="" fill="#2f2e41"/>
  <path d="M 619.504 284.059 L 592.682 288.015 L 583.018 297.571 L 580.019 331.907 L 581.882 362.32 L 574.113 415.954 C 574.113 415.954 593.648 405.11 608.787 418.685 C 623.925 432.259 645.107 421.084 645.542 412.054 L 619.504 284.059 Z" fill="#cbcbcb" style=""/>
  <path d="M 605.884 327.123 L 605.882 327.083 L 619.207 283.652 L 619.381 283.641 C 620.328 283.578 642.668 282.261 647.665 293.292 L 647.688 293.345 L 646.171 338.48 L 648.261 409.169 L 606.945 418.118 L 606.644 418.185 L 605.884 327.123 Z" fill="#2f2e41" style=""/>
  <path d="M 591.118 324.12 L 593.562 287.3 C 576.178 288.382 576.44 300.707 576.459 301.246 L 576.27 356.319 L 572.789 415.239 L 585.448 414.289 L 591.118 324.12 Z" fill="#2f2e41" style=""/>
  <path d="M 551.918 391.116 L 567.351 355.296 L 578.124 335.514 L 583.748 371.198 L 564.22 400.49 L 551.918 391.116 Z" style="" fill="#2f2e41"/>
  <path d="M 615.702 377.936 C 616.708 373.218 621.734 370.557 626.203 372.376 L 638.653 359.788 L 648.149 365.49 L 630.316 383.02 C 627.692 388.411 620.214 388.942 616.856 383.974 C 615.66 382.205 615.243 380.022 615.702 377.936 Z" style="fill: rgb(255, 219, 172);"/>
  <path d="M 626.173 367.782 L 651.56 339.931 L 634.755 315.951 L 636.485 304.228 L 646.39 291.993 L 646.583 292.244 C 647.638 293.609 672.448 325.84 673.161 338.043 C 673.874 350.289 638.214 381.269 636.697 382.582 L 636.485 382.763 L 626.173 367.782 Z" fill="#2f2e41" style=""/>
  <circle cx="604.028" cy="262.998" r="18.044" style="fill: rgb(255, 219, 172);"/>
  <path d="M 620.998 248.572 L 621.871 246.812 L 617.47 244.626 C 617.47 244.626 612.615 236.724 603.828 238.945 C 595.041 241.165 591.089 242.493 591.089 242.493 L 586.699 244.703 L 588.902 246.895 L 584.949 248.224 L 587.59 249.537 L 584.516 251.302 L 586.172 260.357 C 586.172 260.357 588.919 253.488 594.201 256.114 C 599.482 258.738 609.144 254.757 609.144 254.757 L 617.537 271.001 C 617.537 271.001 619.269 265.307 622.357 266.825 C 622.357 266.825 630.243 254.264 620.998 248.572 Z" fill="#2f2e41" style=""/>
  <path d="M 416.828 350.73 L 142.434 426.404 L 52.077 98.772 L 326.471 23.098 L 416.828 350.73 Z" fill="#fff" style=""/>
  <path d="M 416.828 350.73 L 142.434 426.404 L 52.077 98.772 L 326.471 23.098 L 416.828 350.73 Z M 145.94 420.228 L 410.652 347.225 L 322.966 29.273 L 58.254 102.277 L 145.94 420.228 Z" fill="#f1f1f1" style=""/>
  <path d="M 266.758 169.871 L 197.975 188.841 C 195.954 189.395 193.866 188.211 193.308 186.191 L 174.339 117.409 C 173.783 115.388 174.969 113.301 176.988 112.741 L 245.77 93.772 C 247.79 93.217 249.878 94.402 250.438 96.422 L 269.407 165.204 C 269.961 167.224 268.776 169.312 266.758 169.871 Z M 177.392 114.205 C 176.181 114.541 175.469 115.794 175.801 117.005 L 194.771 185.787 C 195.107 186.999 196.359 187.709 197.571 187.377 L 266.354 168.407 C 267.565 168.072 268.276 166.819 267.944 165.608 L 248.975 96.826 C 248.639 95.614 247.386 94.904 246.174 95.236 L 177.392 114.205 Z" fill="#e5e5e5" style=""/>
  <path d="M 249.321 183.735 L 180.539 202.704 C 178.721 203.203 176.841 202.136 176.339 200.32 L 157.369 131.537 C 156.87 129.718 157.936 127.839 159.754 127.337 L 228.536 108.367 C 230.354 107.868 232.234 108.935 232.736 110.752 L 251.706 179.534 C 252.206 181.352 251.139 183.231 249.321 183.735 Z" fill="#1d4ed8" style=""/>
  <rect x="224.463" y="308.355" width="199.109" height="7.694" transform="matrix(0.964011, -0.265861, 0.265861, 0.964011, -161.305618, 8.475906)" fill="#f1f1f1" style=""/>
  <rect x="229.795" y="327.695" width="199.109" height="7.694" transform="matrix(0.964011, -0.265861, 0.265861, 0.964011, -166.255264, 10.589883)" fill="#f1f1f1" style=""/>
  <rect x="235.13" y="347.033" width="199.109" height="7.694" transform="matrix(0.964011, -0.265861, 0.265861, 0.964011, -171.204926, 12.703856)" fill="#f1f1f1" style=""/>
  <rect x="244.516" y="381.072" width="199.109" height="7.694" transform="matrix(0.964011, -0.265861, 0.265861, 0.964011, -179.916306, 16.424461)" fill="#f1f1f1" style=""/>
  <rect x="249.85" y="400.411" width="199.109" height="7.694" transform="matrix(0.964011, -0.265861, 0.265861, 0.964011, -184.865936, 18.538441)" fill="#f1f1f1" style=""/>
  <rect x="255.183" y="419.75" width="199.109" height="7.694" transform="matrix(0.964011, -0.265861, 0.265861, 0.964011, -189.815613, 20.652422)" fill="#f1f1f1" style=""/>
  <path d="M 504.663 425.31 L 220.026 425.31 L 220.026 85.446 L 504.663 85.446 L 504.663 425.31 Z" fill="#fff" style=""/>
  <path d="M 504.663 425.31 L 220.026 425.31 L 220.026 85.446 L 504.663 85.446 L 504.663 425.31 Z M 225.047 420.288 L 499.642 420.288 L 499.642 90.466 L 225.047 90.466 L 225.047 420.288 Z" fill="#e5e5e5" style=""/>
  <rect x="290.1" y="231.549" width="162.74" height="7.694" fill="#1d4ed8" style=""/>
  <rect x="290.1" y="251.554" width="162.74" height="7.694" fill="#1d4ed8" style=""/>
  <rect x="290.1" y="271.558" width="162.74" height="7.694" fill="#1d4ed8" style=""/>
  <circle cx="276.871" cy="236.523" r="5.021" fill="#1d4ed8" style=""/>
  <rect x="290.1" y="145.346" width="162.74" height="7.694" fill="#e5e5e5" style=""/>
  <rect x="290.1" y="165.352" width="162.74" height="7.694" fill="#e5e5e5" style=""/>
  <rect x="290.1" y="185.357" width="162.74" height="7.694" fill="#e5e5e5" style=""/>
  <circle cx="276.871" cy="149.485" r="5.021" fill="#e5e5e5" style=""/>
  <rect x="290.1" y="318.588" width="162.74" height="7.694" fill="#e5e5e5" style=""/>
  <rect x="290.1" y="338.593" width="162.74" height="7.694" fill="#e5e5e5" style=""/>
  <rect x="290.1" y="358.598" width="162.74" height="7.694" fill="#e5e5e5" style=""/>
  <circle cx="276.871" cy="322.725" r="5.021" fill="#e5e5e5" style=""/>
  <g>
    <circle cx="459.951" cy="364.973" r="89.601" fill="#1d4ed8" style=""/>
  </g>
  <g style="" transform="matrix(1.140217, 0, 0, 1.140217, -65.365639, -56.037388)">
    <path d="M 484.777 359.258 L 484.777 342.113 C 484.789 323.003 464.109 311.043 447.553 320.588 C 439.858 325.022 435.116 333.229 435.124 342.113 L 435.124 359.258 C 428.232 359.569 422.801 365.247 422.798 372.145 L 422.798 412.659 L 497.102 412.659 L 497.102 372.145 C 497.098 365.247 491.669 359.569 484.777 359.258 Z M 459.951 326.027 C 468.828 326.04 476.024 333.234 476.033 342.113 L 476.033 359.227 L 443.867 359.227 L 443.867 342.113 C 443.877 333.234 451.071 326.04 459.951 326.027 Z" fill="#fff" style=""/>
    <path d="M 466.629 379.264 C 466.631 374.123 461.066 370.907 456.614 373.476 C 452.346 375.937 452.122 382.015 456.192 384.784 L 456.192 399.301 L 463.707 399.301 L 463.707 384.784 C 465.536 383.543 466.629 381.476 466.629 379.264 Z" fill="#1d4ed8" style=""/>
  </g>
  <path d="M 789.403 565.45 L 464.835 565.45 C 464.18 565.45 463.769 564.739 464.098 564.171 C 464.249 563.907 464.531 563.746 464.835 563.746 L 789.403 563.746 C 790.059 563.746 790.47 564.456 790.14 565.024 C 789.988 565.287 789.708 565.45 789.403 565.45 Z" fill="#cbcbcb" style=""/>
</svg>