<svg width="826" height="592" viewBox="0 0 826 592" fill="none" xmlns="http://www.w3.org/2000/svg">
<path d="M103 213C80.987 213 59.8756 221.745 44.3101 237.31C28.7446 252.876 20 273.987 20 296C20 318.013 28.7446 339.124 44.3101 354.69C59.8756 370.255 80.987 379 103 379H721.548C743.561 379 764.672 370.255 780.238 354.69C795.803 339.124 804.548 318.013 804.548 296C804.548 273.987 795.803 252.876 780.238 237.31C764.672 221.745 743.561 213 721.548 213H103Z" fill="#E5E5E5"/>
<path d="M103 229.798C85.442 229.798 68.6032 236.772 56.1878 249.188C43.7725 261.603 36.7976 278.442 36.7976 296C36.7976 313.558 43.7725 330.397 56.1878 342.812C68.6032 355.228 85.442 362.202 103 362.202H721.548C739.106 362.202 755.944 355.228 768.36 342.812C780.775 330.397 787.75 313.558 787.75 296C787.75 278.442 780.775 261.603 768.36 249.188C755.944 236.772 739.106 229.798 721.548 229.798H103Z" fill="white"/>
<path d="M240.052 335.585H116.985C116.594 335.588 116.206 335.513 115.844 335.366C115.482 335.218 115.153 335 114.875 334.724C114.598 334.449 114.378 334.121 114.228 333.76C114.077 333.399 114 333.012 114 332.621C114 332.23 114.077 331.843 114.228 331.482C114.378 331.121 114.598 330.793 114.875 330.518C115.153 330.242 115.482 330.024 115.844 329.877C116.206 329.729 116.594 329.654 116.985 329.657H240.052C240.835 329.662 241.584 329.977 242.136 330.532C242.687 331.087 242.997 331.838 242.997 332.621C242.997 333.404 242.687 334.155 242.136 334.71C241.584 335.265 240.835 335.58 240.052 335.585Z" fill="#1D4ED8"/>
<path d="M395.748 336.573H272.68C272.289 336.576 271.902 336.501 271.54 336.354C271.178 336.206 270.849 335.988 270.571 335.712C270.294 335.437 270.073 335.109 269.923 334.748C269.773 334.387 269.696 334 269.696 333.609C269.696 333.218 269.773 332.831 269.923 332.47C270.073 332.109 270.294 331.781 270.571 331.506C270.849 331.23 271.178 331.012 271.54 330.865C271.902 330.717 272.289 330.642 272.68 330.645H395.748C396.139 330.642 396.527 330.717 396.889 330.865C397.251 331.012 397.58 331.23 397.857 331.506C398.135 331.781 398.355 332.109 398.505 332.47C398.655 332.831 398.733 333.218 398.733 333.609C398.733 334 398.655 334.387 398.505 334.748C398.355 335.109 398.135 335.437 397.857 335.712C397.58 335.988 397.251 336.206 396.889 336.354C396.527 336.501 396.139 336.576 395.748 336.573Z" fill="#1D4ED8"/>
<path d="M551.867 337.561H428.799C428.017 337.556 427.268 337.241 426.716 336.686C426.165 336.131 425.855 335.38 425.855 334.597C425.855 333.814 426.165 333.064 426.716 332.508C427.268 331.953 428.017 331.638 428.799 331.633H551.867C552.258 331.63 552.646 331.705 553.008 331.853C553.37 332 553.699 332.218 553.976 332.494C554.254 332.769 554.474 333.097 554.624 333.458C554.774 333.819 554.852 334.206 554.852 334.597C554.852 334.988 554.774 335.375 554.624 335.736C554.474 336.097 554.254 336.425 553.976 336.7C553.699 336.976 553.37 337.194 553.008 337.342C552.646 337.489 552.258 337.564 551.867 337.561Z" fill="#1D4ED8"/>
<path d="M707.987 338.55H584.919C584.136 338.544 583.387 338.23 582.836 337.674C582.284 337.119 581.974 336.368 581.974 335.585C581.974 334.803 582.284 334.052 582.836 333.496C583.387 332.941 584.136 332.626 584.919 332.621H707.987C708.769 332.626 709.518 332.941 710.07 333.496C710.621 334.052 710.931 334.803 710.931 335.585C710.931 336.368 710.621 337.119 710.07 337.674C709.518 338.23 708.769 338.544 707.987 338.55Z" fill="#1D4ED8"/>
<path d="M149.581 320V250.182H166.456V279.705H167.376L190.456 250.182H210.331L185.581 281.341L210.774 320H190.592L173.206 292.557L166.456 301.08V320H149.581Z" fill="#1D4ED8"/>
<path d="M334.922 320L346.376 250.182H358.649L347.195 320H334.922ZM303.797 303.364L305.876 291.091H361.24L359.161 303.364H303.797ZM310.376 320L321.831 250.182H334.104L322.649 320H310.376ZM307.786 279.091L309.865 266.818H365.229L363.149 279.091H307.786Z" fill="#1D4ED8"/>
<path d="M486.869 328.727V241.455H492.46V328.727H486.869ZM500.335 271.114C500.108 268.614 499.097 266.67 497.301 265.284C495.528 263.875 492.994 263.17 489.699 263.17C487.517 263.17 485.699 263.455 484.244 264.023C482.79 264.591 481.699 265.375 480.972 266.375C480.244 267.352 479.869 268.477 479.847 269.75C479.801 270.795 480.006 271.716 480.46 272.511C480.938 273.307 481.619 274.011 482.506 274.625C483.415 275.216 484.506 275.739 485.778 276.193C487.051 276.648 488.483 277.045 490.074 277.386L496.074 278.75C499.528 279.5 502.574 280.5 505.21 281.75C507.869 283 510.097 284.489 511.892 286.216C513.71 287.943 515.085 289.932 516.017 292.182C516.949 294.432 517.426 296.955 517.449 299.75C517.426 304.159 516.313 307.943 514.108 311.102C511.903 314.261 508.733 316.682 504.597 318.364C500.483 320.045 495.517 320.886 489.699 320.886C483.858 320.886 478.767 320.011 474.426 318.261C470.085 316.511 466.71 313.852 464.301 310.284C461.892 306.716 460.653 302.205 460.585 296.75H476.744C476.881 299 477.483 300.875 478.551 302.375C479.619 303.875 481.085 305.011 482.949 305.784C484.835 306.557 487.017 306.943 489.494 306.943C491.767 306.943 493.699 306.636 495.29 306.023C496.903 305.409 498.142 304.557 499.006 303.466C499.869 302.375 500.313 301.125 500.335 299.716C500.313 298.398 499.903 297.273 499.108 296.341C498.313 295.386 497.085 294.568 495.426 293.886C493.79 293.182 491.699 292.534 489.153 291.943L481.858 290.239C475.812 288.852 471.051 286.614 467.574 283.523C464.097 280.409 462.369 276.205 462.392 270.909C462.369 266.591 463.528 262.807 465.869 259.557C468.21 256.307 471.449 253.773 475.585 251.955C479.722 250.136 484.438 249.227 489.733 249.227C495.142 249.227 499.835 250.148 503.812 251.989C507.812 253.807 510.915 256.364 513.119 259.659C515.324 262.955 516.449 266.773 516.494 271.114H500.335Z" fill="#1D4ED8"/>
<path d="M636.42 320.886C633.08 320.886 630.114 320.33 627.523 319.216C624.955 318.08 622.92 316.375 621.42 314.102C619.943 311.807 619.205 308.932 619.205 305.477C619.205 302.568 619.716 300.114 620.739 298.114C621.761 296.114 623.17 294.489 624.966 293.239C626.761 291.989 628.83 291.045 631.17 290.409C633.511 289.75 636.011 289.307 638.67 289.08C641.648 288.807 644.045 288.523 645.864 288.227C647.682 287.909 649 287.466 649.818 286.898C650.659 286.307 651.08 285.477 651.08 284.409V284.239C651.08 282.489 650.477 281.136 649.273 280.182C648.068 279.227 646.443 278.75 644.398 278.75C642.193 278.75 640.42 279.227 639.08 280.182C637.739 281.136 636.886 282.455 636.523 284.136L621.148 283.591C621.602 280.409 622.773 277.568 624.659 275.068C626.568 272.545 629.182 270.568 632.5 269.136C635.841 267.682 639.852 266.955 644.534 266.955C647.875 266.955 650.955 267.352 653.773 268.148C656.591 268.92 659.045 270.057 661.136 271.557C663.227 273.034 664.841 274.852 665.977 277.011C667.136 279.17 667.716 281.636 667.716 284.409V320H652.034V312.705H651.625C650.693 314.477 649.5 315.977 648.045 317.205C646.614 318.432 644.92 319.352 642.966 319.966C641.034 320.58 638.852 320.886 636.42 320.886ZM641.568 309.977C643.364 309.977 644.977 309.614 646.409 308.886C647.864 308.159 649.023 307.159 649.886 305.886C650.75 304.591 651.182 303.091 651.182 301.386V296.409C650.705 296.659 650.125 296.886 649.443 297.091C648.784 297.295 648.057 297.489 647.261 297.67C646.466 297.852 645.648 298.011 644.807 298.148C643.966 298.284 643.159 298.409 642.386 298.523C640.818 298.773 639.477 299.159 638.364 299.682C637.273 300.205 636.432 300.886 635.841 301.727C635.273 302.545 634.989 303.523 634.989 304.659C634.989 306.386 635.602 307.705 636.83 308.614C638.08 309.523 639.659 309.977 641.568 309.977Z" fill="#1D4ED8"/>
</svg>
