<?xml version="1.0" encoding="utf-8"?>
<svg viewBox="0 0 825.2 591.4" xmlns="http://www.w3.org/2000/svg">
  <path id="b3ac2088-de9b-4f7f-bc99-0ed9705c1a9d-1127" data-name="Path 22" d="M 521.387 164.465 L 518.459 164.465 L 518.459 84.264 C 518.459 58.628 497.676 37.844 472.038 37.844 L 302.115 37.844 C 276.478 37.844 255.695 58.628 255.695 84.264 L 255.695 524.262 C 255.695 549.9 276.478 570.683 302.115 570.683 L 472.038 570.683 C 497.676 570.683 518.458 549.9 518.458 524.262 L 518.458 221.555 L 521.386 221.555 L 521.387 164.465 Z" fill="#e6e6e6" style=""/>
  <path id="b2715b96-3117-487c-acc0-20904544b5b7-1128" data-name="Path 23" d="M 473.912 49.917 L 451.732 49.917 C 456.152 60.749 448.182 72.607 436.483 72.605 L 339.136 72.605 C 327.436 72.605 319.467 60.749 323.887 49.917 L 303.17 49.917 C 284.026 49.917 268.504 65.437 268.504 84.583 L 268.504 523.942 C 268.504 543.087 284.026 558.608 303.17 558.608 L 473.912 558.608 C 493.058 558.608 508.578 543.087 508.578 523.942 L 508.578 84.582 C 508.578 65.437 493.056 49.917 473.912 49.917 Z" fill="#fff" style=""/>
  <path id="b06d66ec-6c84-45dd-8c27-1263a6253192-1129" data-name="Path 6" d="M 366.784 224.935 C 366.784 218.684 370.118 212.909 375.533 209.786 C 363.874 203.051 349.295 211.465 349.292 224.931 C 349.291 238.397 363.865 246.815 375.53 240.084 C 375.531 240.083 375.532 240.082 375.533 240.081 C 370.12 236.96 366.784 231.186 366.784 224.935 Z" fill="#ccc" style=""/>
  <path id="e73810fe-4cf4-40cc-8c7c-ca544ce30bd4-1130" data-name="Path 7" d="M 388.774 224.935 C 388.772 218.684 392.109 212.907 397.524 209.786 C 385.863 203.051 371.285 211.465 371.284 224.931 C 371.281 238.397 385.857 246.815 397.519 240.084 C 397.522 240.083 397.523 240.082 397.524 240.081 C 392.109 236.96 388.774 231.186 388.774 224.935 Z" fill="#ccc" style=""/>
  <circle id="a4813fcf-056e-4514-bb8b-e6506f49341f" data-name="Ellipse 1" cx="410.266" cy="224.934" r="17.493" fill="#1d4ed8" style=""/>
  <path id="bbe451c3-febc-41ba-8083-4c8307a2e73e-1131" data-name="Path 8" d="M 439.5 279.57 L 337.55 279.57 C 335.528 279.568 333.891 277.931 333.889 275.909 L 333.889 173.96 C 333.891 171.938 335.528 170.301 337.55 170.298 L 439.5 170.298 C 441.521 170.301 443.158 171.938 443.161 173.96 L 443.161 275.909 C 443.158 277.931 441.521 279.568 439.5 279.57 Z M 337.55 171.763 C 336.337 171.765 335.355 172.746 335.353 173.96 L 335.353 275.91 C 335.355 277.123 336.337 278.106 337.55 278.107 L 439.5 278.107 C 440.713 278.106 441.695 277.123 441.696 275.91 L 441.696 173.96 C 441.695 172.746 440.713 171.765 439.5 171.763 L 337.55 171.763 Z" fill="#ccc" style=""/>
  <rect id="bb28937d-932f-4fdf-befe-f406e51091fe" data-name="Rectangle 1" x="305.902" y="357.721" width="156.362" height="1.464" fill="#ccc" style=""/>
  <circle id="fcef55fc-4968-45b2-93bb-1a1080c85fc7" data-name="Ellipse 2" cx="310.841" cy="343.639" r="4.938" fill="#1d4ed8" style=""/>
  <rect id="ff33d889-4c74-4b91-85ef-b4882cc8fe76" data-name="Rectangle 2" x="305.902" y="407.098" width="156.362" height="1.464" fill="#ccc" style=""/>
  <circle id="e8fa0310-b872-4adf-aedd-0c6eda09f3b8" data-name="Ellipse 3" cx="310.841" cy="393.017" r="4.938" fill="#1d4ed8" style=""/>
  <path d="M 459.403 463.327 L 409.988 463.327 C 408.21 463.325 406.771 461.884 406.768 460.108 L 406.768 442.788 C 406.771 441.01 408.21 439.57 409.988 439.568 L 459.403 439.568 C 461.181 439.57 462.62 441.01 462.623 442.788 L 462.623 460.108 C 462.62 461.884 461.181 463.325 459.403 463.327 Z" fill="#1d4ed8" style=""/>
  <circle id="e12ee00d-aa4a-4413-a013-11d20b7f97f7" data-name="Ellipse 7" cx="326.948" cy="343.639" r="4.938" fill="#1d4ed8" style=""/>
  <circle id="f58f497e-6949-45c8-be5f-eee2aa0f6586" data-name="Ellipse 8" cx="343.054" cy="343.639" r="4.938" fill="#1d4ed8" style=""/>
  <circle id="b4d4939a-c6e6-4f4d-ba6c-e8b05485017d" data-name="Ellipse 9" cx="326.948" cy="393.017" r="4.938" fill="#1d4ed8" style=""/>
  <circle id="aff120b1-519b-4e96-ac87-836aa55663de" data-name="Ellipse 10" cx="343.054" cy="393.017" r="4.938" fill="#1d4ed8" style=""/>
  <path id="f1094013-1297-477a-ac57-08eac07c4bd5-1132" data-name="Path 88" d="M 680.44 572.336 L 166.761 572.336 C 165.662 572.336 164.771 571.946 164.771 571.464 C 164.771 570.984 165.662 570.593 166.761 570.593 L 680.44 570.593 C 681.539 570.593 682.431 570.984 682.431 571.464 C 682.431 571.946 681.539 572.336 680.44 572.336 Z" fill="#3f3d56" style=""/>
  <path d="M 553.528 388.026 C 553.879 388.187 554.217 388.375 554.538 388.59 L 586.627 374.895 L 587.773 366.44 L 600.594 366.363 L 599.837 385.75 L 557.482 396.951 C 557.394 397.245 557.286 397.534 557.162 397.815 C 554.77 402.919 547.749 403.52 544.526 398.897 C 541.301 394.272 544.291 387.892 549.907 387.412 C 551.148 387.306 552.393 387.517 553.528 388.026 Z" style="fill: rgb(255, 219, 172);"/>
  <polygon points="605.257 563.711 596.486 563.711 592.313 529.878 605.258 529.88 605.257 563.711" fill="#ffb8b8" style=""/>
  <path d="M 590.221 561.205 L 607.137 561.205 C 607.137 561.205 607.137 561.205 607.137 561.205 L 607.137 571.855 C 607.137 571.855 607.137 571.855 607.137 571.855 L 579.57 571.855 C 579.57 571.855 579.57 571.855 579.57 571.855 C 579.57 565.973 584.338 561.205 590.221 561.205 Z" fill="#2f2e41" style=""/>
  <polygon points="639.37 561.232 630.64 562.092 623.17 528.833 636.054 527.564 639.37 561.232" fill="#ffb8b8" style=""/>
  <path d="M 624.666 559.878 L 641.583 559.878 C 641.583 559.878 641.583 559.878 641.583 559.878 L 641.583 570.529 C 641.583 570.529 641.583 570.529 641.583 570.529 L 614.016 570.529 C 614.016 570.529 614.016 570.529 614.016 570.529 C 614.016 564.646 618.783 559.878 624.666 559.878 Z" fill="#2f2e41" style="" transform="matrix(0.995184, -0.098022, 0.098022, 0.995184, -52.379063, 64.260056)"/>
  <circle cx="607.699" cy="312.985" r="17.571" style="fill: rgb(255, 219, 172);"/>
  <path d="M 594.526 556.869 C 592.97 556.872 591.636 555.757 591.366 554.224 C 586.827 529.022 571.987 446.618 571.631 444.335 C 571.624 444.282 571.621 444.23 571.621 444.176 L 571.621 438.033 C 571.621 437.809 571.691 437.59 571.821 437.408 L 573.782 434.663 C 573.97 434.395 574.273 434.23 574.6 434.214 C 585.776 433.69 622.38 432.156 624.149 434.365 C 625.924 436.585 625.296 443.312 625.152 444.639 L 625.161 444.776 L 641.604 549.944 C 641.873 551.689 640.688 553.325 638.947 553.617 L 628.676 555.309 C 627.094 555.564 625.565 554.622 625.08 553.097 C 621.903 542.945 611.252 508.798 607.56 495.585 C 607.486 495.319 607.155 495.234 606.961 495.429 C 606.894 495.496 606.856 495.587 606.857 495.684 C 607.043 508.28 607.488 540.415 607.642 551.516 L 607.659 552.711 C 607.674 554.389 606.401 555.797 604.731 555.955 L 594.826 556.857 C 594.726 556.864 594.625 556.869 594.526 556.869 Z" fill="#2f2e41" style=""/>
  <path id="ae7af94f-88d7-4204-9f07-e3651de85c05-1133" data-name="Path 99" d="M 596.546 337.467 C 593.481 339.29 591.646 342.639 590.592 346.049 C 588.643 352.36 587.469 358.885 587.098 365.48 L 585.984 385.226 L 572.209 437.574 C 584.15 447.678 591.036 445.381 607.11 437.117 C 623.182 428.855 625.018 439.873 625.018 439.873 L 628.232 395.33 L 632.825 346.657 C 631.793 345.416 630.627 344.294 629.346 343.314 C 620.746 336.626 609.554 334.254 598.981 336.877 L 596.546 337.467 Z" fill="#1d4ed8" style=""/>
  <path d="M 592.072 398.598 C 592.442 398.739 592.801 398.906 593.145 399.103 L 624.875 383.222 L 625.401 374.618 L 638.488 373.715 L 639.191 393.328 L 596.789 407.35 C 595.476 412.981 588.562 415.077 584.343 411.127 C 580.124 407.174 581.765 400.138 587.296 398.46 C 588.861 397.985 590.537 398.034 592.072 398.598 Z" style="fill: rgb(255, 219, 172);"/>
  <path id="a6768b0e-63d0-4b31-8462-9b2e0b00f0fd-1134" data-name="Path 101" d="M 632.594 346.88 C 640.399 349.635 641.776 379.486 641.776 379.486 C 632.591 374.435 621.571 382.701 621.571 382.701 C 621.571 382.701 619.274 374.895 616.518 364.79 C 614.828 359.016 616.214 352.776 620.192 348.261 C 620.192 348.261 624.787 344.123 632.594 346.88 Z" fill="#1d4ed8" style=""/>
  <path id="bfd7963f-0cf8-4885-9d3a-2c00bccda2e3-1135" data-name="Path 102" d="M 623.454 317.632 C 621.265 315.882 618.279 319.064 618.279 319.064 L 616.527 303.302 C 616.527 303.302 605.58 304.613 598.574 302.864 C 591.568 301.113 590.473 309.212 590.473 309.212 C 590.112 305.941 590.038 302.644 590.254 299.36 C 590.692 295.42 596.384 291.478 606.456 288.852 C 616.527 286.223 621.78 297.608 621.78 297.608 C 628.787 301.112 625.643 319.383 623.454 317.632 Z" fill="#2f2e41" style=""/>
</svg>