<?xml version="1.0" standalone="no"?>
<!DOCTYPE svg PUBLIC "-//W3C//DTD SVG 20010904//EN"
 "http://www.w3.org/TR/2001/REC-SVG-20010904/DTD/svg10.dtd">
<svg version="1.0" xmlns="http://www.w3.org/2000/svg"
 width="500.000000pt" height="500.000000pt" viewBox="0 0 500.000000 500.000000"
 preserveAspectRatio="xMidYMid meet">
<metadata>
Created by potrace 1.14, written by Peter Selinger 2001-2017
</metadata>
<g transform="translate(0.000000,500.000000) scale(0.100000,-0.100000)"
fill="#000000" stroke="none">
<path d="M2315 4830 c-171 -26 -241 -43 -350 -85 -81 -31 -154 -71 -240 -130
-16 -11 -70 -60 -120 -110 -123 -121 -203 -245 -272 -420 -88 -222 -109 -368
-108 -770 l0 -290 273 -3 272 -2 0 57 c0 231 8 655 14 687 22 126 101 282 182
357 123 113 306 172 539 171 372 -1 604 -153 688 -452 30 -108 35 -175 36
-552 l1 -268 269 0 c206 0 270 3 273 13 2 6 3 143 2 302 -1 253 -10 385 -30
476 -3 13 -8 38 -11 54 -18 105 -101 312 -171 430 -123 207 -325 375 -557 463
-48 19 -165 49 -225 58 -19 3 -46 8 -60 10 -44 9 -353 12 -405 4z"/>
<path d="M684 2711 c-2 -2 -4 -576 -4 -1275 l0 -1271 1812 2 c997 1 1816 2
1821 2 4 1 7 574 7 1274 l0 1272 -1816 0 c-999 0 -1818 -2 -1820 -4z m2636
-832 c0 -4 -235 -241 -522 -528 l-523 -521 -285 285 -285 285 115 115 c63 63
119 115 124 115 6 0 76 -66 156 -147 81 -82 154 -154 162 -161 14 -11 69 40
420 391 l403 404 118 -116 c64 -64 117 -119 117 -122z"/>
</g>
</svg>
