<svg width="1920" height="668" viewBox="0 0 1920 668" fill="none" xmlns="http://www.w3.org/2000/svg">
<path d="M639.702 95.5491C639.266 92.106 638.385 88.734 637.081 85.5178C636.915 84.9096 636.624 84.3427 636.227 83.8532C635.829 83.3637 635.334 82.9623 634.773 82.6747C634.023 82.4797 633.237 82.4709 632.482 82.6491L620.723 84.4485C619.738 84.4934 618.796 84.8596 618.04 85.491C616.508 87.1018 618.016 89.6956 617.969 91.9178C617.916 94.4167 615.696 96.445 613.289 97.1161C610.831 97.6127 608.296 97.5812 605.851 97.0239L589.407 94.4685C594.25 92.9224 598.561 90.0458 601.847 86.1672C604.011 83.6037 605.162 78.8177 602.035 77.6038C601.106 77.3488 600.137 77.271 599.179 77.3744C591.729 77.4324 585.866 71.212 578.892 68.5922C574.428 67.0238 569.582 66.9071 565.048 68.2588C560.514 69.6105 556.523 72.3613 553.647 76.1179L562.406 76.5402C563.23 76.4948 564.048 76.7127 564.74 77.1625C566.659 78.7398 564.273 81.7694 564.543 84.2392C564.894 87.4481 569.155 88.1332 572.367 88.4577C575.578 88.7822 579.653 91.3916 578.108 94.226C561.966 99.7862 545.539 83.357 528.586 85.3794C524.295 85.8913 520.244 87.5769 516.054 88.6368C490.464 95.1114 464.008 77.8363 437.866 81.4949C432.055 82.4856 426.343 83.992 420.799 85.9963C417.241 87.1645 413.529 88.427 410.944 91.1363C408.359 93.8457 407.375 98.4791 409.824 101.312C403.074 101.868 396.279 101.222 389.754 99.4043C391.518 100.385 392.986 101.823 394.003 103.566C395.021 105.31 395.55 107.295 395.535 109.314C384.995 111.033 374.735 114.161 365.029 118.616C366.84 121.628 368.956 124.446 371.343 127.027L358 135.599C362.508 136.735 364.839 142.882 362.217 146.721C366.891 144.641 369.788 139.262 374.786 138.171C378.061 137.457 381.393 138.796 384.499 140.055C387.606 141.313 391.02 142.533 394.236 141.589C397.451 140.644 399.823 136.475 397.78 133.818C411.525 129.808 425.73 127.588 440.043 127.215C441.148 127.076 442.268 127.289 443.244 127.822C445.108 129.115 444.617 131.907 444.517 134.173C444.417 136.438 446.182 139.416 448.207 138.395C445.825 140.46 447.861 144.349 450.147 146.521C452.432 148.694 455.187 151.691 453.788 154.517C453.423 155.254 452.803 155.844 452.452 156.588C451.415 158.785 453.061 161.346 455.004 162.804C456.946 164.263 459.325 165.282 460.675 167.302C462.024 169.322 461.411 172.858 458.998 173.14L452.141 164.433C449.798 166.863 448.192 169.906 447.508 173.212C454.78 179.156 455.874 191.256 449.786 198.409C446.675 202.064 442.251 204.285 438.389 207.136C434.528 209.987 430.955 214.046 430.964 218.846C430.981 227.139 430.304 234.843 433.411 242.531C439.141 256.707 445.757 270.51 453.218 283.856C455.178 287.36 457.71 291.202 461.68 291.805C456.663 279.592 452.147 267.189 448.132 254.596C450.747 254.606 453.769 254.814 455.303 256.932C456.572 258.687 456.299 261.072 456.694 263.202C457.196 265.265 458.032 267.232 459.171 269.024L483.127 311.698C485.113 315.236 487.391 319.033 491.187 320.466C493.614 321.382 496.421 321.209 498.655 322.528C500.406 323.562 501.585 325.396 503.37 326.37C508.416 329.123 515.434 323.843 520.15 327.13C521.499 328.07 522.356 329.563 523.599 330.639C527.955 334.411 535.1 331.888 540.128 334.702C543.369 336.515 545.049 340.142 546.777 343.429C551.107 351.662 558.112 359.728 567.391 360.383C570.306 360.589 573.283 360.037 576.133 360.685C578.982 361.333 581.786 363.82 581.329 366.706C580.545 371.653 582.989 377.071 582.333 382.037C581.137 391.083 568.306 395.058 567.204 404.116C566.962 406.1 567.34 408.147 566.868 410.088C566.289 412.467 564.502 414.404 563.867 416.769C562.664 421.251 565.875 425.711 569.402 428.726C572.929 431.741 577.137 434.341 579.065 438.562C581.104 443.023 580.102 448.224 580.765 453.084C582.212 463.693 591.376 471.558 600.806 476.629C603.68 478.175 606.765 479.67 608.624 482.351C611.052 485.849 610.81 490.461 611.62 494.642C613.606 504.879 622.224 513.314 622.468 523.74C622.642 531.15 618.523 537.872 616.063 544.864C613.756 551.563 612.921 558.68 613.616 565.731C614.31 572.782 616.517 579.6 620.086 585.72C621.926 588.828 624.128 591.758 625.43 595.128C627.753 601.141 626.999 607.976 629.142 614.055C631.974 622.093 639.757 628.732 639.012 637.221C642.546 644.559 650.348 648.164 658.194 650.348L672.255 654.263C674.948 655.012 677.761 655.767 680.503 655.225C683.245 654.682 685.861 652.406 685.79 649.612C678.895 648.057 671.778 646.403 666.094 642.201C660.41 637.999 656.516 630.517 658.672 623.785C659.672 620.663 661.8 617.059 659.777 614.48C658.619 613.003 656.501 612.617 655.195 611.27C653.158 609.168 653.858 605.638 655.322 603.103C656.787 600.569 658.904 598.304 659.495 595.438C659.793 593.834 659.594 592.177 658.924 590.69C658.254 589.202 657.145 587.955 655.746 587.116C658.353 586.132 660.725 584.61 662.706 582.651C664.536 580.56 665.382 577.338 663.942 574.962C668.218 575.504 673.265 575.77 676.072 572.499C678.313 569.887 678.159 565.983 677.274 562.657C676.388 559.331 674.891 556.101 674.845 552.66C684.708 553.127 694.593 552.792 704.401 551.657C702.983 546.88 699.76 542.844 695.415 540.403C699.858 539.651 703.905 534.333 705.308 530.052C706.712 525.77 706.354 521.107 705.486 516.686C705.153 515.547 705.107 514.344 705.353 513.184C705.854 511.59 707.42 510.617 708.869 509.785L730.919 497.121C732.235 496.462 733.428 495.581 734.445 494.518C736.756 491.804 736.413 487.708 735.23 484.346C734.047 480.984 732.153 477.823 731.697 474.288C730.334 463.717 741.65 456.133 745.469 446.182C746.968 442.277 747.273 438.032 747.563 433.859C747.875 429.378 747.898 424.172 744.457 421.284C741.158 418.515 736.004 419.133 732.553 416.558C729.388 414.197 728.296 409.612 724.839 407.705C721.7 405.973 717.763 407.074 714.271 406.26C708.123 404.826 704.254 397.74 697.975 397.084C694.433 396.714 690.423 398.445 687.52 396.382C684.961 394.564 684.859 390.91 684.372 387.81C683.518 382.991 681.209 378.549 677.754 375.083C674.299 371.618 669.865 369.294 665.049 368.425C661.396 367.839 657.42 368.061 654.313 366.054C651.166 364.021 649.724 360.216 647.252 357.401C643.269 352.864 636.995 351.253 631.118 349.871L607.212 344.251C602.969 343.254 597.499 342.725 595.221 346.442C594.547 347.857 594.07 349.358 593.803 350.903C592.95 353.697 591.232 356.149 588.898 357.906C586.564 359.664 583.732 360.635 580.811 360.682C578.807 357.265 575.562 354.753 571.751 353.672C569.327 352.996 566.732 352.921 564.42 351.927C563.161 351.313 562.041 350.447 561.127 349.385C560.214 348.322 559.527 347.085 559.109 345.747C558.691 344.41 558.55 343.002 558.695 341.608C558.84 340.215 559.268 338.865 559.952 337.643C561.33 335.189 561.863 332.35 561.467 329.563C561.071 326.777 559.769 324.198 557.762 322.225C553.696 318.575 547.816 317.693 542.365 318.059C540.937 314.943 543.324 311.429 545.896 309.165C548.469 306.901 551.593 304.675 552.153 301.295C553.034 295.977 546.249 291.938 541.097 293.524C535.945 295.109 532.657 300.113 530.483 305.046C529.236 307.876 528.176 310.856 526.209 313.243C524.242 315.629 521.074 317.338 518.077 316.572C513.835 315.488 512.197 310.448 511.258 306.171C509.998 300.433 508.731 294.616 508.995 288.747C509.259 282.879 511.238 276.853 515.565 272.88C522.617 266.406 533.434 267.041 542.951 268.074C540.703 265.541 541.259 261.271 543.664 258.887C544.934 257.758 546.46 256.957 548.11 256.552C549.76 256.146 551.483 256.149 553.132 256.561C555.999 257.158 558.583 258.702 560.466 260.946C563.17 264.243 563.939 268.695 565.983 272.438C568.028 276.18 572.624 279.373 576.386 277.365C579.636 275.63 580.152 271.124 579.343 267.531C578.534 263.937 576.816 260.443 577.109 256.771C577.668 249.765 584.931 245.548 591.34 242.663C597.748 239.777 605.087 235.897 606.102 228.942C606.137 227.581 606.394 226.234 606.863 224.955C607.573 223.825 608.561 222.897 609.732 222.257C628.436 209.896 647.451 197.384 668.829 190.63C669.941 190.278 670.072 190.669 671.205 190.394C672.792 189.477 671.741 186.94 670.22 185.919C668.699 184.897 666.666 184.113 666.28 182.322C665.996 181.006 666.772 179.713 666.974 178.381C667.469 175.109 663.554 172.087 660.514 173.395C658.797 171.121 662.195 168.479 664.942 167.722C673.192 165.452 681.661 164.068 690.205 163.595C691.191 163.439 692.202 163.61 693.08 164.084C694.515 165.078 694.332 167.358 693.315 168.777C692.298 170.196 690.716 171.087 689.448 172.287C688.064 173.636 687.076 175.34 686.594 177.211C686.111 179.083 686.151 181.052 686.711 182.902C691.171 185.171 696.021 187.507 700.961 186.707C705.901 185.908 710.285 180.357 707.963 175.924C705.801 171.796 699.306 170.865 698.189 166.341C696.881 161.044 704.38 156.332 702.691 151.144C701.951 148.872 699.686 147.534 697.948 145.894C695.896 143.882 694.499 141.297 693.943 138.477C693.387 135.658 693.696 132.736 694.83 130.095C691.999 130.593 689.091 130.405 686.347 129.547C683.604 128.688 681.107 127.185 679.065 125.162C675.295 121.356 672.286 115.353 666.932 115.523C662.018 115.68 657.786 121.412 653.191 119.663C652.061 119.233 650.869 118.357 649.774 118.871C649.415 119.104 649.114 119.415 648.893 119.782C648.672 120.148 648.537 120.56 648.499 120.986C647.332 126.569 649.34 132.929 646.298 137.753C642.987 143.002 635.329 143.73 631.315 148.463C629.136 151.033 628.292 154.495 626.29 157.204C624.287 159.913 620.036 161.636 617.633 159.275C618.814 156.847 619.137 154.089 618.548 151.454C617.959 148.819 616.494 146.461 614.392 144.766C612.16 143.311 609.755 142.141 607.232 141.284C604.413 140.091 601.731 138.596 599.234 136.826C597.983 136.072 596.966 134.984 596.298 133.685C595.769 132.058 595.84 130.295 596.498 128.716C597.717 125.222 599.867 122.127 602.716 119.766C605.565 117.404 609.005 115.866 612.665 115.317C615.865 114.881 619.589 115.035 621.707 112.597C622.827 111.307 623.415 109.356 625.042 108.832C626.082 108.623 627.162 108.756 628.121 109.211L640.065 113.415C641.397 114.017 642.864 114.26 644.32 114.119C645.041 114.022 645.699 113.655 646.162 113.093C646.625 112.531 646.858 111.814 646.814 111.088C646.432 109.104 643.38 108.152 643.658 106.152C643.814 105.503 644.162 104.917 644.658 104.471C648.968 99.8833 654.24 96.3052 660.095 93.9931C665.95 91.6809 672.244 90.6919 678.526 91.0968C680.033 93.5727 677.649 96.5047 675.665 98.6183C673.681 100.732 672.087 104.509 674.486 106.135C675.47 106.637 676.563 106.884 677.667 106.852C680.607 107.25 683.465 108.117 686.131 109.419C690.259 111.215 694.307 113.181 698.276 115.315C697.925 112.698 697.59 109.941 698.582 107.494C699.574 105.047 702.393 103.128 704.856 104.081C707.229 104.999 708.446 108.142 710.974 108.429C714.346 108.813 715.677 103.831 714.268 100.743C712.859 97.655 710.071 95.0693 709.838 91.683C709.681 89.3985 710.55 86.5653 708.725 85.1819C708.076 84.7666 707.339 84.5081 706.572 84.427L661.008 76.0423C658.302 75.5444 654.393 75.9261 654.273 78.6746C654.206 80.2088 655.577 81.7265 654.97 83.1371C654.322 84.6426 652.194 84.505 650.644 85.0375C648.239 85.8637 647.032 88.7196 647.263 91.2522C647.686 93.7687 648.66 96.1604 650.117 98.2558C647.153 97.0163 642.665 96.7885 639.702 95.5491Z" fill="#171717"/>
<path d="M603.346 56.8706C600.473 55.9198 597.377 55.8755 594.477 56.7438C591.578 57.612 589.016 59.3509 587.138 61.7245C586.388 62.7123 585.758 64.0741 586.386 65.1437C587.287 66.6772 589.581 66.0715 591.273 65.5229C593.759 64.6346 596.465 64.5701 598.991 65.3388C600.58 65.8842 602.001 66.848 603.596 67.3728C604.373 67.6976 605.223 67.8049 606.056 67.6832C606.889 67.5615 607.673 67.2153 608.324 66.6818C609.419 65.5652 609.488 63.8291 609.49 62.2652C609.566 61.7419 609.524 61.2082 609.367 60.7032C609.211 60.1981 608.943 59.7344 608.585 59.3458C607.946 58.976 607.228 58.7637 606.491 58.7267C604.841 58.4212 603.348 57.5492 602.272 56.2612" fill="#171717"/>
<path d="M619.775 52.2964C619.132 52.2614 618.491 52.3924 617.914 52.6768C617.336 52.9613 616.841 53.3895 616.477 53.9205C616.112 54.4514 615.891 55.0672 615.833 55.7085C615.775 56.3499 615.884 56.9953 616.148 57.5826C618.122 58.1212 620.185 58.2557 622.213 57.9781C623.225 57.8211 624.167 57.3682 624.922 56.6764C625.676 55.9847 626.209 55.0851 626.453 54.0911C624.065 54.5256 621.602 54.055 619.542 52.7712" fill="#171717"/>
<path d="M674.898 44.6568C669.524 45.7995 664.303 47.5731 659.344 49.9406C661.682 50.8391 663.669 52.4648 665.013 54.5781C666.356 56.6913 666.986 59.1804 666.808 61.6784C666.598 62.6374 666.623 63.6329 666.879 64.5805C667.45 65.9654 669.105 66.4851 670.561 66.8405C673.175 67.6363 675.906 67.9847 678.636 67.8713C680.002 67.7998 681.329 67.3889 682.496 66.6756C683.663 65.9624 684.634 64.9694 685.321 63.7865C685.716 62.6638 686.181 61.5664 686.711 60.5006C690.199 55.1879 700.562 61.6117 704.307 56.477C705.627 54.6682 705.506 51.9455 707.226 50.5122C708.115 49.8878 709.146 49.4943 710.226 49.3672C717.758 47.8709 725.366 46.7873 733.016 46.1215C736.64 45.8061 741.365 44.5045 741.395 40.8662C727.742 38.1849 713.586 40.0893 701.127 46.2834C696.638 48.5317 690.701 53.2611 686.377 50.2804C684.758 49.1644 684.838 46.1592 682.61 44.9042C680.332 43.6212 677.316 44.143 674.898 44.6568Z" fill="#171717"/>
<path d="M719.547 53.0063L725.956 54.2377C724.777 54.1855 723.599 54.3854 722.503 54.8242C721.407 55.263 720.417 55.9305 719.599 56.7823C718.781 57.634 718.154 58.6504 717.76 59.7636C717.366 60.8768 717.214 62.0612 717.314 63.2378C723.316 65.2428 729.859 63.2918 736.181 63.5583C742.503 63.8248 749.859 68.3408 748.78 74.5758C748.453 76.461 747.364 78.345 747.931 80.1726C748.327 81.4535 749.457 82.3624 750.095 83.5421C751.423 86.0004 750.362 89.1098 748.684 91.3445C747.006 93.5792 744.751 95.3623 743.278 97.7371C739.615 103.644 741.696 111.28 743.878 117.879C744.509 120.372 745.674 122.698 747.293 124.697C750.525 128.134 755.793 128.433 760.511 128.502C763.945 128.552 767.878 128.383 770.05 125.722C772.885 122.249 770.903 116.829 772.769 112.753C774.464 109.051 778.783 107.462 782.696 106.336C789.865 104.272 797.17 102.517 803.948 99.4002C812.363 95.5293 820.228 89.497 829.478 88.9988C832.073 88.859 834.732 89.1652 837.232 88.4543C839.731 87.7433 842.106 85.5822 841.917 82.9903C841.755 80.7758 839.881 79.1496 838.417 77.4802C836.953 75.8107 835.804 73.2436 837.149 71.4773L861.394 66.9489C859.675 62.2653 858.336 56.097 862.285 53.0484C863.71 51.9484 865.618 51.5088 866.831 50.179C868.899 47.9126 867.859 44.0084 865.472 42.0809C863.086 40.1535 859.858 39.706 856.801 39.4521C846.17 38.5692 835.478 39.1526 824.827 39.7364C804.006 40.8777 783.185 42.019 762.364 43.1603C758.172 43.39 753.333 43.039 749.489 44.469C746.234 45.6796 743.92 47.9018 740.198 48.6825C733.327 50.1239 725.765 49.1486 719.547 53.0063Z" fill="#171717"/>
<path d="M834.361 103.664C833.708 103.561 833.04 103.712 832.496 104.087C832.136 104.484 831.921 104.991 831.888 105.526C831.475 107.885 831.968 110.314 833.268 112.325C833.931 113.312 834.846 114.103 835.917 114.617C836.989 115.131 838.179 115.348 839.363 115.247C842.249 114.879 844.376 112.417 847.029 111.216C851.118 109.366 868.483 106.482 856.47 99.9923C852.331 97.7558 849.656 99.7301 846.393 101.203C842.681 103.102 838.521 103.953 834.361 103.664Z" fill="#171717"/>
<path d="M939.575 49.3426C938.172 49.9157 936.999 50.9371 936.238 52.2474C935.887 52.9127 935.806 53.6873 936.01 54.411C936.215 55.1347 936.69 55.752 937.337 56.1353C937.861 56.3253 938.416 56.4134 938.973 56.3949L944.676 56.5653C947.099 56.6377 950.126 57.1537 950.777 59.4885C951.26 61.2222 950.178 63.4501 951.484 64.689C952.044 65.1229 952.718 65.3857 953.424 65.4457C955.303 65.9283 957.265 65.9917 959.171 65.6312C963.32 64.5181 961.14 61.9854 962.447 59.7302C964.446 56.2796 964.1 58.3684 967.624 56.3908C970.226 54.9304 973.589 52.281 971.417 48.5586C967.64 42.0855 945.148 46.5618 939.575 49.3426Z" fill="#171717"/>
<path d="M1052.14 46.0883L1048.83 46.5302C1041.36 47.5268 1033.85 48.5325 1026.66 50.7752C1029.77 52.0062 1033.04 52.8077 1036.37 53.1577C1038.2 53.2476 1040.02 53.5064 1041.81 53.9309C1044.99 54.8766 1048.19 57.3189 1051.26 56.0678C1053.16 55.2921 1053.78 53.3106 1055.36 52.2605C1056.45 51.5353 1060.57 50.3617 1061.04 49.6298C1064.77 43.7129 1055.01 45.7055 1052.14 46.0883Z" fill="#171717"/>
<path d="M1066.69 61.1399C1062.26 63.6135 1058.16 66.6192 1054.46 70.09C1052.91 71.5527 1051.32 73.372 1051.46 75.5029C1051.65 78.3351 1054.66 79.9779 1057.28 81.0845L1067.87 85.5668C1069.15 83.7566 1067.97 81.2578 1066.65 79.4789C1065.32 77.7 1063.74 75.6418 1064.33 73.5011C1065 71.0583 1067.98 70.2258 1070.47 69.805C1074.54 69.1193 1085.52 69.1743 1084.2 62.6158C1082.65 54.888 1070.77 58.8566 1066.69 61.1399Z" fill="#171717"/>
<path d="M1064.56 498.465C1063.55 501.383 1063.45 504.82 1065.2 507.367C1067.15 510.226 1071.07 511.292 1074.46 510.567C1077.83 509.669 1080.83 507.736 1083.05 505.04C1085.08 502.781 1086.75 500.223 1088 497.457C1089.74 493.147 1090.97 488.646 1091.66 484.048L1094.95 466.789C1095.68 462.932 1095.65 451.107 1088.56 454.96C1086.63 456.012 1082.14 464.323 1080.11 466.679C1076.46 470.926 1075.97 475.047 1074.05 480.193C1071.63 486.638 1066.79 492.009 1064.56 498.465Z" fill="#171717"/>
<path d="M1438.99 586.783C1436.67 585.878 1434.42 584.806 1432.26 583.576C1430.08 589.545 1428.93 595.836 1428.84 602.188L1444.71 593.206C1447.1 591.854 1449.81 589.977 1449.76 587.234C1449.78 586.895 1449.71 586.557 1449.55 586.254C1449.4 585.952 1449.17 585.697 1448.88 585.516C1448.53 585.374 1448.14 585.329 1447.77 585.385C1445.41 585.581 1443.27 586.74 1441.05 587.545C1438.83 588.35 1436.23 588.776 1434.19 587.581" fill="#171717"/>
<path d="M1522.73 592.116C1520.99 592.59 1519.28 593.201 1517.64 593.942C1513.99 595.796 1511.52 599.316 1508.24 601.757C1505.1 604.093 1501.33 605.376 1497.62 606.623C1496.53 607.587 1497.03 609.528 1498.21 610.375C1499.49 611.099 1500.95 611.427 1502.41 611.317C1506.26 611.402 1510.31 611.439 1513.69 609.579C1515.59 608.346 1517.37 606.935 1519 605.363C1522.94 602.073 1527.68 599.901 1532.37 597.803C1534.07 597.159 1535.65 596.215 1537.03 595.017C1539.97 592.115 1540.18 587.637 1535.93 586.649C1532.5 585.851 1526 591.058 1522.73 592.116Z" fill="#171717"/>
<path d="M1559.73 567.948C1559.92 565.951 1559.65 563.936 1558.95 562.057C1558.25 560.177 1557.13 558.482 1555.67 557.098C1555.63 561.094 1555.51 565.351 1553.26 568.656C1551.66 571.01 1549.15 572.6 1547.4 574.843C1545.64 577.086 1544.86 580.64 1546.92 582.608C1548.24 583.609 1549.84 584.161 1551.49 584.182C1555.59 584.665 1560.33 584.933 1563.2 581.974C1564.77 580.359 1565.53 577.966 1567.45 576.779C1568.16 576.48 1568.79 576.024 1569.31 575.446C1570.1 574.191 1568.84 572.536 1567.43 572.084C1566.02 571.632 1564.46 571.844 1563.04 571.415C1561.62 570.985 1560.32 569.389 1561.05 568.097" fill="#171717"/>
<path d="M1493.97 421.44C1491.82 421.963 1489.59 422.094 1487.4 421.828C1483.75 421.157 1480.91 418.409 1477.97 416.155C1470.97 410.826 1462.46 407.853 1453.67 407.664C1445.67 407.513 1437.59 409.681 1429.73 408.168C1430.25 411.023 1432.69 413.165 1435.3 414.438C1437.9 415.711 1440.78 416.352 1443.4 417.599C1447.6 419.615 1450.92 423.077 1452.77 427.349C1453.62 429.318 1454.15 431.461 1455.43 433.181C1458.04 436.695 1462.99 437.467 1467.36 437.18C1473.06 436.805 1479.01 435.166 1484.31 437.289C1488.36 438.913 1491.26 442.461 1494.65 445.221C1498.03 447.98 1502.8 450.028 1506.69 448.037C1502.65 446.73 1499.14 444.166 1496.66 440.72C1494.18 437.275 1492.87 433.127 1492.92 428.883C1496.73 429.234 1507.71 429.098 1507.12 422.62C1506.62 417.129 1497.24 420.848 1493.97 421.44Z" fill="#171717"/>
<path d="M1444.09 466.11C1444.77 462.397 1448.47 459.119 1447.32 455.525C1446.52 453.04 1443.64 451.813 1441.03 451.752C1438.42 451.69 1435.86 452.468 1433.25 452.541C1431.55 452.451 1429.85 452.475 1428.15 452.613C1422.97 453.465 1419.78 458.893 1414.9 460.823C1411.93 461.997 1408.6 461.772 1405.51 462.584C1398.51 464.425 1394.07 471.046 1389.18 476.384C1381.26 484.97 1370.95 490.983 1359.58 493.642C1355.6 494.564 1351.32 495.155 1348.15 497.742C1343.96 501.168 1342.92 507.042 1341.99 512.376C1339.41 527.107 1335.48 541.567 1330.23 555.57L1346.86 557.694C1350.02 558.098 1353.3 558.493 1356.35 557.556C1358.56 556.721 1360.66 555.603 1362.59 554.232C1370 549.631 1378.29 546.638 1386.93 545.445C1391.29 544.847 1395.86 544.738 1399.94 546.357C1404.03 547.976 1407.54 551.649 1407.88 556.033C1409.65 555.483 1411.54 555.423 1413.33 555.861C1415.13 556.298 1416.78 557.216 1418.1 558.517C1420.7 561.171 1422.41 564.577 1422.98 568.253C1423.41 570.529 1423.85 573.256 1425.96 574.211C1427.69 574.99 1429.66 574.151 1431.55 574C1437.94 573.488 1443.25 580.946 1449.54 579.662C1456.28 578.284 1457.94 568.187 1464.51 566.164C1468.29 565.002 1473.59 566.415 1475.4 562.901C1476.99 559.803 1473.81 556.229 1474.14 552.761C1474.55 548.49 1479.58 546.678 1483.47 544.856C1496.85 538.574 1503.21 520.554 1496.72 507.265C1492.88 499.391 1485.31 493.192 1483.92 484.542C1482.84 477.887 1485.46 470.126 1481.22 464.888C1479.06 462.223 1475.41 460.752 1474.12 457.572C1473.32 455.57 1473.64 453.299 1473.21 451.185C1472.77 449.071 1470.93 446.859 1468.84 447.407C1462.78 448.998 1460.84 467.721 1457.6 472.27C1452.67 479.185 1442.54 474.63 1444.09 466.11Z" fill="#171717"/>
<path d="M1332.06 428.514C1329.99 427.934 1327.73 427.361 1325.75 428.191C1323.76 429.021 1322.6 431.935 1324.2 433.381C1336.66 432.895 1349.19 432.413 1361.55 434.106C1375.78 436.055 1389.87 440.885 1404.17 439.464C1396 437.055 1387.7 435.128 1379.31 433.695L1365.31 431.021C1361.56 430.235 1357.76 429.648 1353.94 429.265C1345.96 428.605 1339.92 430.716 1332.06 428.514Z" fill="#171717"/>
<path d="M1344.54 385.116C1343.51 385.03 1342.22 384.955 1341.69 385.845C1341.18 386.694 1341.76 387.817 1341.49 388.77C1341.11 390.072 1339.41 390.404 1338.06 390.227C1336.72 390.05 1335.27 389.625 1334.08 390.273C1333.47 390.685 1333.02 391.282 1332.79 391.974C1332.55 392.666 1332.54 393.416 1332.77 394.111C1333.26 395.491 1334.04 396.745 1335.08 397.784C1336.84 400.001 1338.84 402.013 1341.05 403.78C1345.34 406.941 1351.14 408.464 1353.84 413.053C1354.22 413.943 1354.8 414.73 1355.54 415.351C1356.84 416.171 1358.53 415.547 1359.92 414.91L1364.81 412.677C1365.69 412.36 1366.47 411.825 1367.09 411.123C1368.21 409.608 1367.52 407.454 1366.59 405.822C1365.65 404.19 1364.45 402.501 1364.65 400.63C1365.01 397.294 1369.3 396.018 1371.06 393.164C1372.84 390.286 1371.68 386.579 1371.89 383.203C1372.13 379.255 1374.61 374.119 1370.62 371.169C1367.22 368.662 1363.98 370.978 1361.55 373.746C1356.41 379.583 1353.98 385.904 1344.54 385.116Z" fill="#171717"/>
<path d="M1374.2 326.123C1375.87 329.318 1379.35 331.224 1381.17 334.335C1383.14 337.707 1382.92 342.064 1385.06 345.333C1387.25 348.686 1391.67 350.467 1392.9 354.281C1394.24 358.445 1391.19 363.506 1393.63 367.145C1394.08 367.74 1394.65 368.234 1395.3 368.596C1395.96 368.958 1396.68 369.18 1397.43 369.249C1398.17 369.317 1398.92 369.23 1399.63 368.993C1400.34 368.756 1400.99 368.375 1401.55 367.873C1402.57 366.757 1403.12 365.285 1403.07 363.771C1403.03 362.256 1402.4 360.819 1401.31 359.766C1399.87 358.454 1397.8 357.887 1396.6 356.354C1395.97 355.47 1395.56 354.455 1395.38 353.386C1394.73 350.302 1394.83 347.106 1395.69 344.072C1396.01 343.302 1396.09 342.453 1395.92 341.636C1395.38 340.064 1393.25 339.952 1391.76 339.223C1388.36 337.566 1388.44 332.776 1389.04 329.046C1388.64 331.53 1379.8 327.306 1378.87 325.9C1377.03 323.105 1378.03 317.715 1377.67 314.628C1373.7 316.542 1372.16 322.217 1374.2 326.123Z" fill="#171717"/>
<path d="M1285.09 375.275C1283.46 373.448 1281 371.536 1278.81 372.638C1277.14 373.479 1276.68 375.789 1277.34 377.541C1278.14 379.242 1279.36 380.705 1280.9 381.787C1285.46 385.548 1290.37 388.944 1294.35 393.317C1301.47 401.142 1305.25 411.702 1312.99 418.911C1314.55 420.582 1316.61 421.698 1318.86 422.087C1321.12 422.297 1323.65 420.853 1323.91 418.602C1324.12 416.747 1322.83 415.087 1321.57 413.713C1318.56 410.441 1315.26 407.429 1312.42 404.01C1311.11 402.696 1310.29 400.975 1310.09 399.129C1310.07 397.288 1311.75 395.361 1313.54 395.817C1311.37 395.263 1309.76 391.649 1306.57 390.969C1303.91 390.401 1303.27 392.049 1300.1 390.691C1294.06 388.1 1289.32 380.01 1285.09 375.275Z" fill="#171717"/>
<path d="M1427.01 197.32C1425.28 196.805 1423.57 196.196 1421.91 195.497C1417.42 194.151 1411.49 197.447 1412.09 202.091C1412.48 205.176 1415.36 207.256 1416.94 209.933C1419.29 213.901 1418.67 218.935 1417.43 223.38C1417.13 224.756 1416.55 226.057 1415.73 227.206C1414.59 228.419 1413.23 229.4 1411.72 230.097C1405.66 233.493 1400.32 238.03 1395.99 243.457C1395.52 243.959 1395.19 244.577 1395.04 245.248C1394.83 246.815 1396.4 247.958 1397.29 249.265C1399.27 252.17 1397.84 256.079 1398.04 259.589C1398.01 260.085 1398.1 260.58 1398.32 261.029C1398.53 261.477 1398.86 261.863 1399.27 262.149C1400.46 262.755 1401.87 261.726 1402.52 260.554C1404.67 256.667 1403.05 250.427 1407.07 248.552C1407.84 248.198 1408.76 248.048 1409.27 247.379C1410.07 246.318 1409.3 244.747 1409.7 243.479C1410.32 241.574 1412.92 241.489 1414.92 241.573C1418.36 241.717 1421.81 241.259 1425.09 240.219C1426.38 239.913 1427.55 239.235 1428.46 238.27C1429.66 236.768 1429.55 234.633 1429.31 232.723C1428.11 223.204 1425.09 214.004 1420.43 205.619C1423.97 206.07 1427.81 206.462 1430.87 204.619C1432.57 203.587 1434.62 200.501 1433.78 198.401C1432.44 195.079 1430.01 197.875 1427.01 197.32Z" fill="#171717"/>
<path d="M973.688 249.672C974.111 251.941 974.527 254.331 973.783 256.517C973.039 258.702 970.699 260.529 968.49 259.859C966.775 259.339 965.785 257.615 964.567 256.301C957.796 248.991 942.519 253.223 938.336 244.179C936.629 240.488 937.789 236.067 936.625 232.17C935.89 229.918 934.429 227.974 932.469 226.643C930.51 225.312 928.164 224.67 925.8 224.817C923.644 225.128 921.545 225.755 919.571 226.676C906.346 231.973 892.462 235.445 878.3 236.998C875.609 237.162 872.947 237.647 870.37 238.441C864.555 240.549 860.582 245.94 857.755 251.441C854.927 256.942 852.84 262.898 849.049 267.785C845.065 272.921 839.482 276.518 834.275 280.409C832.269 281.702 830.598 283.452 829.401 285.517C828.272 287.835 828.336 290.531 828.423 293.107L829.488 324.402C829.625 328.427 829.796 332.596 831.598 336.198C833.848 340.696 838.292 343.643 841.375 347.616C844.521 351.7 846.16 356.745 846.014 361.898C845.949 363.97 845.743 366.42 847.356 367.721C848.338 368.358 849.486 368.688 850.656 368.67L892.988 372.135C900.435 372.744 908.687 373.746 913.549 379.42C915.844 382.097 917.687 385.948 921.201 386.235C922.709 386.358 924.176 385.739 925.683 385.62C929.487 385.319 932.829 388.206 934.938 391.386C938.13 396.233 939.579 402.022 939.047 407.801C938.701 411.429 937.577 414.956 937.334 418.592C936.411 432.427 948.14 444.448 948.368 458.312C948.501 466.467 944.63 474.087 940.856 481.317C946.947 490.546 941.959 502.834 944.384 513.623C946.685 523.858 955.219 531.871 957.346 542.144C958.319 546.847 958.376 552.634 962.523 555.057C964.342 555.944 966.36 556.347 968.381 556.229C980.57 556.374 992.621 553.63 1003.55 548.223C1008.68 545.679 1013.99 541.88 1014.88 536.226C1015.61 531.666 1013.29 526.566 1015.65 522.594C1018.42 517.913 1025.53 518.284 1029.61 514.685C1036.23 508.847 1031.07 497.711 1033.75 489.302C1036.16 481.743 1044.46 477.727 1048.57 470.942C1050.19 468.025 1051.35 464.876 1052.02 461.606C1053.9 453.79 1055.07 445.82 1055.52 437.792C1055.63 432.915 1055.99 428.047 1056.6 423.207C1061.04 395.65 1088.28 377.197 1097.12 350.724C1097.97 348.196 1098.36 344.828 1096.12 343.398C1094.78 342.761 1093.27 342.603 1091.83 342.949L1072.32 345.41C1069.89 345.715 1067.32 346.001 1065.1 344.994C1062.87 343.987 1061.28 341.171 1062.46 339.033C1065.77 333.029 1058.95 325.443 1055.93 319.29C1047.77 302.723 1038.05 286.97 1026.92 272.242C1026.2 271.484 1025.76 270.515 1025.64 269.481L1031.18 269.665C1029.31 262.956 1026.23 255.615 1019.71 253.161C1016.04 251.779 1011.97 252.257 1008.05 252.471C996.828 253.084 984.796 251.389 973.688 249.672Z" fill="#171717"/>
<path d="M1008.06 98.4952C1011 101.614 1014.29 104.921 1018.54 105.464C1026.04 106.425 1031.44 98.6633 1034.88 91.9217C1035 93.6404 1035.8 95.2417 1037.09 96.3849C1038.37 97.5282 1040.06 98.1233 1041.78 98.0436C1043.63 97.7319 1045.4 97.0406 1046.97 96.0131C1061.85 87.8865 1078.5 83.5807 1095.45 83.4825C1095.28 82.1988 1095.6 80.9003 1096.34 79.8376C1097.08 78.7748 1098.19 78.0232 1099.44 77.7276C1102.89 77.0446 1105.99 80.0234 1107.66 83.1178C1109.32 86.2121 1110.35 89.7988 1113 92.1149C1115.64 94.4311 1120.75 94.3302 1121.79 90.9762C1122.79 87.7561 1119.44 85.0101 1116.65 83.1116C1113.86 81.2132 1110.93 77.6995 1112.8 74.8979C1127.04 71.7461 1141.37 68.5824 1155.94 67.956C1158.42 68.0423 1160.89 67.6165 1163.2 66.7052C1165.42 65.6148 1167.19 63.1398 1166.59 60.738C1163.41 61.4854 1160.08 61.269 1157.02 60.1163C1153.97 58.9636 1151.32 56.9269 1149.43 54.266C1169.65 52.5977 1191.15 51.1757 1209.06 60.6883C1211.21 65.3037 1200.26 69.1437 1203.19 73.3066C1204.12 74.6343 1206 74.79 1207.62 74.8201C1220.07 75.0513 1232.59 75.2779 1244.9 73.3982C1249.4 72.7113 1253.95 71.7416 1258.46 72.2987C1265.98 73.2264 1272.42 78.2457 1279.82 79.8822C1282.83 80.5483 1286.21 80.5709 1288.75 78.8189C1291.29 77.0669 1292.38 73.0775 1290.3 70.8C1297.27 63.9705 1308.83 65.6632 1318.02 68.9328C1327.22 72.2023 1335.93 77.4751 1345.66 78.2039C1352.63 78.7265 1359.71 76.8498 1366.6 78.0427C1370.93 78.7923 1374.96 80.7196 1379.2 81.9037C1387.21 84.1432 1395.68 83.6705 1403.99 83.7782C1425.21 84.0641 1446.19 88.2336 1465.9 96.0804C1468.47 96.9153 1470.82 98.3035 1472.79 100.147C1474.62 102.111 1475.56 105.163 1474.32 107.551L1453.95 104.575C1455.87 108.353 1460.84 108.997 1464.87 110.3C1468.9 111.604 1473.08 116.057 1470.66 119.533C1466.29 118.142 1462.33 122.51 1460.13 126.529C1457.92 130.548 1455.23 135.361 1450.65 135.606C1446.55 135.825 1441.59 132.334 1438.92 135.451C1442.61 140.109 1445.77 145.163 1448.35 150.521C1450.99 156.021 1452.87 162.952 1449.3 167.901C1448.74 168.784 1447.88 169.445 1446.89 169.769C1443.98 170.506 1442.08 166.941 1439.99 164.78C1437.36 162.057 1433.37 161.286 1429.81 160.009C1426.24 158.731 1422.48 156.219 1422.21 152.441C1422.03 150.09 1423.27 147.905 1424.19 145.733C1425.72 142.071 1426.4 138.104 1426.15 134.141C1425.95 130.952 1425.06 127.635 1422.77 125.407C1420.48 123.179 1416.52 122.472 1414.06 124.513C1412.92 125.465 1412 126.988 1410.51 127.045C1407.88 127.145 1405.85 122.556 1403.74 124.123C1403.99 125.792 1403.64 127.495 1402.76 128.935C1396.44 134.431 1386.73 132.106 1378.58 134.048C1374.71 135.156 1371 136.776 1367.56 138.864C1366.27 139.415 1365.17 140.336 1364.4 141.51C1363.39 143.487 1364.51 146.018 1366.3 147.332C1368.2 148.498 1370.34 149.227 1372.55 149.466C1382.49 151.347 1392.56 154.259 1400.4 160.639C1408.25 167.018 1413.39 177.564 1410.91 187.363L1391.32 168.648C1392.06 176.506 1392.49 184.386 1392.59 192.287C1392.71 193.83 1392.5 195.382 1391.97 196.834C1390.57 199.918 1386.78 200.956 1383.47 201.637C1382.55 201.812 1381.67 202.181 1380.9 202.718C1380.13 203.255 1379.48 203.949 1379 204.755C1378.52 205.56 1378.21 206.459 1378.1 207.391C1377.99 208.323 1378.08 209.268 1378.36 210.164C1379.54 214.005 1382.48 216.999 1385.17 219.983C1387.86 222.966 1390.5 226.357 1390.85 230.359C1391.21 234.361 1388.19 238.871 1384.18 238.593C1381.14 238.382 1378.89 235.662 1377.59 232.907C1376.3 230.151 1375.53 227.081 1373.58 224.739C1367.69 217.652 1354.45 220.688 1349.17 213.132C1347.82 214.659 1346.89 216.504 1346.46 218.492C1346.03 220.481 1346.11 222.547 1346.7 224.494C1349.16 222.957 1352.52 224.385 1354.36 226.619C1356.21 228.853 1357.08 231.717 1358.53 234.227C1360.48 237.612 1363.6 240.614 1363.87 244.515C1363.8 245.989 1363.82 247.467 1363.94 248.939C1364.43 251.302 1366.43 252.999 1367.81 254.975C1371.03 259.571 1370.87 265.886 1368.8 271.101C1366.72 276.316 1362.99 280.674 1359.29 284.899C1352.84 292.278 1346.25 299.615 1338.6 305.743C1336.41 307.492 1334.08 309.211 1332.72 311.656C1331.36 314.101 1331.29 317.532 1333.38 319.392C1331.89 319.467 1329.2 320.203 1327.71 320.277C1327.18 314.278 1327.07 308.249 1327.37 302.234C1321.46 299.4 1315.11 306.99 1315.87 313.492C1316.63 319.995 1321.33 325.213 1324.68 330.839C1327.13 334.953 1328.95 339.751 1328.13 344.468C1327.32 349.185 1323.11 353.537 1318.34 353.121C1310.75 352.459 1307.58 341.568 1300.06 340.322C1299.4 340.166 1298.71 340.235 1298.09 340.518C1296.97 341.13 1296.78 342.622 1296.71 343.893C1296.41 350.129 1296.14 356.613 1298.58 362.362C1302.14 370.773 1311.34 377.838 1309.41 386.766C1299.01 381.933 1293.61 370.274 1291.15 359.075C1288.7 347.876 1288.29 336.119 1283.89 325.532C1280.55 329.814 1273.53 326.274 1270.47 321.782C1267.58 317.524 1265.8 312.598 1262.99 308.282C1260.18 303.966 1255.88 300.101 1250.74 299.864C1245.35 299.615 1240.67 303.316 1236.56 306.812C1233.18 309.687 1229.7 312.675 1227.73 316.65C1224.85 322.433 1225.6 329.251 1225.46 335.709C1225.31 342.691 1223.83 350.057 1219.08 355.168C1214.32 360.279 1205.54 362.059 1200.29 357.453C1197.55 355.048 1196.22 351.455 1195.04 348.006C1189.34 331.381 1184.6 314.445 1180.83 297.281C1179.95 301.198 1176.51 306.248 1173.22 303.94C1172.48 303.32 1171.89 302.55 1171.47 301.682C1165.34 291.292 1153.99 285.06 1142.52 281.323C1131.05 277.587 1118.98 275.844 1107.63 271.737C1101.28 269.435 1095.21 266.411 1089.54 262.724C1088.09 264.846 1087.25 267.32 1087.1 269.882C1086.95 272.445 1087.49 275.002 1088.67 277.281C1091.19 281.736 1096.88 284.314 1101.75 282.757C1104.27 281.952 1106.4 280.203 1108.9 279.34C1111.4 278.476 1114.75 278.9 1115.84 281.308C1116.89 283.613 1115.31 286.401 1116.09 288.807C1117.29 292.472 1122.82 292.754 1124.75 296.089C1126.19 298.571 1125 301.866 1122.95 303.868C1120.9 305.87 1118.16 306.968 1115.65 308.362C1107.52 312.885 1101.73 320.605 1094.63 326.611C1087.52 332.618 1077.49 337.003 1069.02 333.15C1071.04 322.926 1058.86 315.42 1056.62 305.242C1055.88 301.892 1056.26 298.333 1055.21 295.068C1053.69 290.342 1049.49 287.092 1046.05 283.51C1041.88 279.118 1038.63 273.935 1036.49 268.267C1034.36 262.598 1033.38 256.559 1033.61 250.506C1033.8 246.299 1034.57 242.024 1033.61 237.924C1032.65 233.824 1029.26 229.856 1025.05 230.042C1015.44 230.466 1003.34 231.181 998.301 222.991C996.502 220.068 995.719 215.787 998.32 213.547C1000.15 211.967 1002.86 212.116 1005.27 212.353L1026.92 214.483C1031.98 214.981 1037.46 215.392 1041.8 212.745C1046.14 210.098 1048.03 203.072 1044 199.958C1041.07 197.683 1035.8 197.806 1034.94 194.189C1034.23 191.176 1037.57 187.757 1035.77 185.239C1034.47 183.434 1031.57 183.935 1029.81 185.288C1028.05 186.642 1026.78 188.621 1024.81 189.646C1021.35 191.443 1017.23 189.732 1013.51 188.57C1009.79 187.407 1004.81 187.308 1003.01 190.76C1000.99 194.62 1004.8 199.678 1002.8 203.546C1000.15 208.66 991.193 205.749 987.478 210.148C983.216 215.196 990.379 222.723 988.941 229.171C987.106 230.08 985.066 230.497 983.022 230.383C980.977 230.268 978.997 229.624 977.275 228.516C975.581 227.364 974.231 225.774 973.369 223.916C972.507 222.058 972.164 220.002 972.378 217.964C972.733 215.064 974.246 212.102 973.233 209.361C972.413 207.145 970.188 205.825 968.12 204.682L947.084 193.058C945.131 196.681 947.6 201.173 950.688 203.894C953.776 206.615 957.643 208.665 959.672 212.246C960.955 214.727 961.243 217.605 960.476 220.291C959.709 222.977 957.946 225.269 955.547 226.699C955.246 226.907 954.904 227.047 954.544 227.11C954.184 227.172 953.815 227.156 953.462 227.063C953.126 226.866 952.833 226.603 952.601 226.291C952.369 225.978 952.201 225.623 952.109 225.244C948.398 215.746 942.825 206.381 933.916 201.42C925.007 196.458 912.205 197.478 906.363 205.836C904.975 207.822 904.044 210.084 902.835 212.183C896.412 223.335 882.644 228.615 869.78 228.27C868.522 228.34 867.27 228.046 866.174 227.423C864.095 225.987 864.189 222.94 864.507 220.434L865.857 209.797C866.128 207.661 866.521 205.3 868.212 203.966C870.595 202.087 874.033 203.273 877.068 203.229C879.367 203.121 881.577 202.309 883.4 200.903C885.222 199.497 886.567 197.564 887.254 195.367C887.867 193.149 887.864 190.805 887.243 188.589C886.623 186.372 885.409 184.367 883.733 182.789C882.342 181.483 880.475 179.842 881.21 178.08C881.503 177.593 881.899 177.176 882.371 176.859C882.842 176.541 883.378 176.331 883.94 176.242C889.391 174.659 895.151 174.244 900.512 172.376C905.872 170.508 911.071 166.687 912.34 161.154C912.729 159.458 912.906 157.404 914.429 156.564C915.194 156.241 916.014 156.073 916.844 156.07C919.75 155.657 922.396 154.171 924.261 151.904C926.126 149.637 927.075 146.754 926.921 143.823C929.49 142.028 933.09 143.348 935.575 145.257C938.06 147.167 940.254 149.689 943.278 150.512C948.914 152.046 954.36 147.056 960.201 147.033C962.657 147.023 965.2 147.892 967.51 147.059C969.853 146.215 971.252 143.883 973.05 142.16C974.847 140.438 978.002 139.387 979.662 141.243L978.249 130.772C981.095 131.491 984.063 131.593 986.953 131.07C989.842 130.548 992.587 129.413 995.002 127.743L976.731 121.569C976.095 121.411 975.508 121.097 975.023 120.656C973.694 119.226 975.014 116.997 976.094 115.371C978.678 111.481 979.112 105.074 974.862 103.138C971.962 101.816 968.633 103.402 965.849 104.955L952.514 112.39C952.09 114.925 955.19 116.361 957.111 118.069C958.273 119.102 959.095 120.462 959.47 121.971C959.845 123.48 959.755 125.067 959.211 126.524C958.667 127.981 957.696 129.239 956.424 130.133C955.152 131.028 953.639 131.517 952.085 131.536C952.963 132.678 953.573 134.002 953.87 135.411C954.167 136.821 954.143 138.279 953.8 139.678L944.827 140.323C943.821 140.526 942.774 140.322 941.917 139.755C940.958 138.903 941.088 137.409 940.866 136.145C940.329 133.095 937.341 130.956 934.293 130.408C931.244 129.86 928.125 130.563 925.106 131.256C923.824 131.718 922.416 131.685 921.157 131.165C920.435 130.696 919.886 130.004 919.595 129.193C918.271 125.984 919.508 122.212 921.634 119.468C923.76 116.723 926.67 114.717 929.283 112.432C935.533 106.949 940.125 99.8265 942.54 91.8704C947.479 89.801 952.593 86.9892 957.532 84.9197C965.147 81.0643 973.686 79.4097 982.19 80.1421L998.917 80.4616C1003.87 80.5562 1008.96 80.6774 1013.54 82.5654C1018.11 84.4534 1022.14 88.537 1022.45 93.4801C1022.55 94.0397 1022.5 94.6144 1022.31 95.1501C1022.13 95.6859 1021.81 96.1653 1021.38 96.5432C1020.74 96.8961 1020 97.0612 1019.27 97.0199C1014.65 97.1822 1012.68 98.333 1008.06 98.4952Z" fill="#171717"/>
<path d="M874.735 150.919C875.389 150.3 875.859 149.513 876.095 148.645C876.33 147.776 876.322 146.86 876.07 145.996C874.48 145.382 872.75 145.225 871.075 145.541C869.4 145.857 867.847 146.635 866.59 147.786C865.599 148.788 864.745 149.917 864.05 151.144C861.852 154.73 859.908 159.013 861.182 163.021C861.286 163.459 861.476 163.871 861.741 164.233C862.006 164.596 862.341 164.902 862.726 165.134C863.297 165.363 863.913 165.459 864.526 165.416C866.948 165.412 869.367 165.264 871.77 164.97C873.246 164.789 874.96 164.372 875.531 162.999C876.281 161.194 874.466 159.151 874.995 157.269C875.343 156.428 875.87 155.673 876.54 155.056C876.873 154.746 877.128 154.362 877.287 153.935C877.445 153.509 877.501 153.051 877.452 152.599C877.239 151.716 875.887 151.215 875.4 151.983" fill="#171717"/>
<path d="M887.291 134.64C885.14 134.146 882.923 134.007 880.727 134.228C880.241 134.213 879.76 134.323 879.328 134.546C878.91 134.854 878.607 135.294 878.466 135.794C878.003 137.283 878.117 138.891 878.786 140.3C879.455 141.708 880.63 142.813 882.077 143.393C882.865 143.575 883.621 143.878 884.316 144.293C886.172 145.734 884.989 148.678 885.34 151.001C885.735 153.61 888.26 155.8 887.797 158.398C887.432 160.444 885.247 162.065 885.598 164.114C885.967 166.26 888.69 166.904 890.861 167.076C892.118 167.297 893.413 167.148 894.589 166.649C895.767 165.843 896.605 164.63 896.941 163.243C897.829 160.598 898.203 157.807 898.041 155.021C898.031 153.755 897.713 152.509 897.114 151.393C896.46 150.508 895.736 149.679 894.947 148.912C890.789 144.075 895.167 136.86 887.291 134.64Z" fill="#171717"/>
<path d="M528.183 181.116C535.888 181.116 542.135 174.869 542.135 167.164C542.135 159.458 535.888 153.211 528.183 153.211C520.477 153.211 514.23 159.458 514.23 167.164C514.23 174.869 520.477 181.116 528.183 181.116Z" fill="#1D4ED8"/>
<path d="M654.235 479.408C661.941 479.408 668.188 473.162 668.188 465.456C668.188 457.75 661.941 451.503 654.235 451.503C646.53 451.503 640.283 457.75 640.283 465.456C640.283 473.162 646.53 479.408 654.235 479.408Z" fill="#1D4ED8"/>
<path d="M1188.76 179.191C1196.46 179.191 1202.71 172.945 1202.71 165.239C1202.71 157.533 1196.46 151.287 1188.76 151.287C1181.05 151.287 1174.8 157.533 1174.8 165.239C1174.8 172.945 1181.05 179.191 1188.76 179.191Z" fill="#1D4ED8"/>
<path d="M1434.13 527.52C1441.83 527.52 1448.08 521.273 1448.08 513.568C1448.08 505.862 1441.83 499.615 1434.13 499.615C1426.42 499.615 1420.17 505.862 1420.17 513.568C1420.17 521.273 1426.42 527.52 1434.13 527.52Z" fill="#1D4ED8"/>
<path d="M978.508 379.336C986.214 379.336 992.46 373.089 992.46 365.384C992.46 357.678 986.214 351.431 978.508 351.431C970.802 351.431 964.556 357.678 964.556 365.384C964.556 373.089 970.802 379.336 978.508 379.336Z" fill="#1D4ED8"/>
<path d="M1211.67 477.996C1207.21 477.982 1202.77 477.407 1198.45 476.286L1197.59 476.051L1196.81 475.654C1168.25 461.34 1144.17 442.431 1125.21 419.454C1109.52 400.324 1097.29 378.602 1089.06 355.266C1079.23 327.329 1074.5 297.85 1075.09 268.237C1075.11 267.615 1075.12 267.135 1075.12 266.805C1075.12 252.41 1083.11 239.779 1095.47 234.627C1104.94 230.684 1190.87 195.388 1197.08 192.838C1208.77 186.979 1221.24 191.87 1223.24 192.724C1227.72 194.555 1307.15 227.046 1324.32 235.22C1342.01 243.645 1346.73 258.78 1346.73 266.394C1346.73 300.866 1340.76 333.085 1328.99 362.153C1319.48 385.68 1306 407.402 1289.14 426.369C1256.61 462.975 1224.08 475.952 1223.76 476.066C1219.87 477.404 1215.78 478.057 1211.67 477.996ZM1204.02 459.043C1206.84 459.676 1213.33 460.625 1217.57 459.081C1222.94 457.119 1250.18 442.998 1275.62 414.359C1310.79 374.792 1328.63 325.052 1328.65 266.521C1328.59 265.336 1327.75 256.878 1316.55 251.545C1299.71 243.528 1217.14 209.766 1216.31 209.426L1216.09 209.33C1214.35 208.604 1208.85 207.077 1205.05 209.067L1204.29 209.421C1203.37 209.799 1112.15 247.263 1102.43 251.317C1095.62 254.152 1093.2 261.177 1093.2 266.805C1093.2 267.217 1093.19 267.815 1093.17 268.587C1092.39 308.637 1101.66 407.184 1204.02 459.043Z" fill="#3F3D56"/>
<path d="M1202.11 200.237C1202.11 200.237 1110.07 238.041 1100.21 242.151C1090.34 246.26 1085.41 256.122 1085.41 265.984C1085.41 275.846 1078.02 404.532 1202.11 466.752C1202.11 466.752 1213.38 469.868 1221.92 466.752C1230.47 463.635 1338.95 411.038 1338.95 265.573C1338.95 265.573 1338.95 250.78 1321.69 242.561C1304.43 234.343 1220.99 200.237 1220.99 200.237C1220.99 200.237 1210.74 195.717 1202.11 200.237Z" fill="#1D4ED8"/>
<path opacity="0.1" d="M1210.72 230.644V432.318C1210.72 432.318 1117.85 387.615 1118.67 270.093L1210.72 230.644Z" fill="black"/>
<path d="M1144.21 302.748L1156.51 341.427H1156.99L1169.31 302.748H1181.25L1163.7 353.657H1149.83L1132.25 302.748H1144.21ZM1187.37 353.657V302.748H1207.46C1211.32 302.748 1214.61 303.485 1217.33 304.96C1220.05 306.419 1222.12 308.449 1223.54 311.051C1224.98 313.636 1225.71 316.619 1225.71 319.999C1225.71 323.38 1224.98 326.363 1223.52 328.948C1222.06 331.534 1219.95 333.547 1217.18 334.989C1214.43 336.431 1211.1 337.151 1207.19 337.151H1194.38V328.526H1205.45C1207.52 328.526 1209.22 328.169 1210.57 327.457C1211.93 326.728 1212.94 325.725 1213.6 324.449C1214.28 323.156 1214.62 321.673 1214.62 319.999C1214.62 318.309 1214.28 316.834 1213.6 315.575C1212.94 314.299 1211.93 313.313 1210.57 312.617C1209.21 311.904 1207.48 311.548 1205.4 311.548H1198.14V353.657H1187.37ZM1275.28 302.748V353.657H1265.98L1243.83 321.615H1243.46V353.657H1232.7V302.748H1242.14L1264.12 334.765H1264.56V302.748H1275.28Z" fill="#F7F7F7"/>
<path d="M825.186 190H577C575.343 190 574 191.343 574 193V475C574 476.657 575.343 478 577 478H825.186C826.843 478 828.186 476.657 828.186 475V193C828.186 191.343 826.843 190 825.186 190Z" fill="#E6E6E6"/>
<path d="M822.532 194.955L577.68 196.711L579.654 471.878L824.506 470.122L822.532 194.955Z" fill="white"/>
<path d="M701.093 461.676C708.821 461.676 715.085 455.673 715.085 448.267C715.085 440.862 708.821 434.858 701.093 434.858C693.366 434.858 687.101 440.862 687.101 448.267C687.101 455.673 693.366 461.676 701.093 461.676Z" fill="#E6E6E6"/>
<path d="M698.761 293.773H619.474V301.935H698.761V293.773Z" fill="#E6E6E6"/>
<path d="M738.405 318.259H619.474V325.255H738.405V318.259Z" fill="#1D4ED8"/>
<path d="M726.745 341.579H619.474V349.741H726.745V341.579Z" fill="#E6E6E6"/>
<path d="M785.045 366.065H619.474V374.227H785.045V366.065Z" fill="#1D4ED8"/>
<path d="M757.061 388.219H621.806V396.38H757.061V388.219Z" fill="#E6E6E6"/>
<path d="M700.873 212.401C695.104 212.401 689.465 214.111 684.669 217.316C679.872 220.52 676.134 225.075 673.926 230.404C671.718 235.733 671.14 241.598 672.265 247.255C673.39 252.913 676.168 258.11 680.247 262.189C684.325 266.268 689.522 269.046 695.18 270.172C700.837 271.298 706.701 270.72 712.031 268.513C717.36 266.306 721.916 262.568 725.121 257.772C728.326 252.976 730.037 247.337 730.037 241.568V241.567C730.037 237.737 729.283 233.944 727.817 230.406C726.351 226.867 724.203 223.652 721.494 220.943C718.786 218.235 715.571 216.087 712.032 214.621C708.494 213.155 704.701 212.401 700.871 212.401H700.873ZM700.873 221.15C702.603 221.15 704.294 221.663 705.733 222.624C707.172 223.586 708.293 224.952 708.956 226.551C709.618 228.149 709.791 229.909 709.453 231.606C709.116 233.303 708.283 234.862 707.059 236.085C705.835 237.309 704.277 238.142 702.579 238.48C700.882 238.817 699.123 238.644 697.525 237.982C695.926 237.32 694.559 236.198 693.598 234.76C692.637 233.321 692.124 231.629 692.124 229.899C692.124 227.579 693.045 225.353 694.686 223.713C696.327 222.072 698.552 221.15 700.873 221.15ZM700.873 263.271C697.416 263.256 694.016 262.397 690.966 260.769C687.917 259.142 685.31 256.795 683.373 253.932C683.514 248.099 695.039 244.888 700.873 244.888C706.706 244.888 718.232 248.099 718.372 253.932C716.433 256.793 713.826 259.138 710.777 260.765C707.728 262.393 704.328 263.253 700.873 263.271Z" fill="#1D4ED8"/>
</svg>
