<?xml version="1.0" encoding="utf-8"?>
<svg viewBox="0 0 825.20213 591.41898" xmlns="http://www.w3.org/2000/svg">
  <g transform="matrix(1.012273, 0, 0, 1.012273, -364.101746, -168.788513)" style="">
    <path d="M 1133.163 661.981 C 1135.67 665.883 1137.595 670.13 1138.877 674.588 C 1139.962 678.572 1140.444 682.696 1140.308 686.823 C 1139.959 695.315 1137.576 703.6 1133.359 710.978 C 1130.183 716.577 1126.311 721.75 1121.838 726.378 C 1119.647 727.863 1117.456 729.313 1115.263 730.728 C 1115.249 730.736 1115.234 730.749 1115.219 730.756 C 1115.113 730.823 1115.008 730.892 1114.909 730.96 C 1114.457 731.252 1114.004 731.543 1113.556 731.832 C 1113.556 731.832 1114.044 732.071 1113.779 731.962 C 1113.7 731.93 1113.618 731.9 1113.539 731.867 C 1115.197 718.274 1110.161 704.719 1100.03 695.508 C 1095.025 691.037 1089.036 687.813 1082.548 686.097 C 1082.866 685.643 1083.21 685.206 1083.566 684.779 C 1086.072 685.481 1088.51 686.404 1090.853 687.536 C 1099.228 691.559 1106.086 698.173 1110.411 706.397 C 1114.293 713.866 1115.963 722.287 1115.227 730.672 C 1115.601 730.333 1115.976 729.986 1116.339 729.642 C 1123.265 723.183 1129.418 715.769 1133.581 707.213 C 1137.193 699.967 1138.968 691.944 1138.751 683.851 C 1138.41 675.025 1134.895 666.85 1129.805 659.734 C 1124.227 652.142 1117.636 645.348 1110.217 639.542 C 1102.741 633.552 1094.56 628.5 1085.856 624.498 C 1085.449 624.308 1085.262 623.831 1085.431 623.415 C 1085.489 623.234 1085.617 623.084 1085.784 622.997 C 1085.959 622.922 1086.159 622.93 1086.328 623.02 C 1087.402 623.516 1088.469 624.016 1089.527 624.541 C 1098.344 628.9 1106.585 634.337 1114.062 640.728 C 1121.284 646.887 1128.083 653.923 1133.163 661.981 Z" fill="#fff" style=""/>
    <path d="M 1046.077 217.323 L 427.165 217.323 C 422.257 217.327 418.279 221.307 418.274 226.216 L 418.274 645.713 C 418.279 650.623 422.257 654.602 427.165 654.607 L 1046.077 654.607 C 1048.679 654.607 1051.15 653.465 1052.837 651.486 C 1052.908 651.408 1052.973 651.327 1053.031 651.241 C 1053.562 650.591 1053.991 649.866 1054.305 649.088 C 1054.753 648.019 1054.981 646.872 1054.978 645.712 L 1054.978 226.216 C 1054.973 221.303 1050.989 217.322 1046.077 217.323 Z M 1052.439 645.713 C 1052.44 646.953 1052.075 648.167 1051.389 649.201 C 1050.779 650.111 1049.952 650.854 1048.983 651.363 C 1048.085 651.827 1047.088 652.068 1046.077 652.067 L 427.165 652.067 C 423.659 652.062 420.817 649.221 420.813 645.713 L 420.813 226.216 C 420.817 222.709 423.659 219.867 427.165 219.862 L 1046.077 219.862 C 1049.587 219.861 1052.434 222.705 1052.439 226.216 L 1052.439 645.713 Z" fill="#3f3d56" style=""/>
    <rect x="419.541" y="252.967" width="634.162" height="2.543" fill="#3f3d56" style=""/>
    <circle cx="440.706" cy="246.051" r="7.625" fill="#3f3d56" style="" transform="matrix(1, 0, 0, 1.000251, 0.440199, -9.722117)"/>
    <circle cx="462.206" cy="246.051" r="7.625" fill="#3f3d56" style="" transform="matrix(1, 0, 0, 1.000251, 0.862115, -9.722117)"/>
    <circle cx="483.707" cy="246.051" r="7.625" fill="#3f3d56" style="" transform="matrix(1, 0, 0, 1.000251, 1.284051, -9.722117)"/>
    <path d="M 828.991 396.169 C 813.156 396.169 803.26 379.023 811.177 365.306 C 819.094 351.589 838.888 351.589 846.806 365.306 C 848.611 368.434 849.562 371.983 849.562 375.594 C 849.548 386.952 840.346 396.157 828.991 396.169 Z M 828.991 356.969 C 814.657 356.969 805.698 372.489 812.865 384.907 C 820.032 397.324 837.95 397.324 845.117 384.907 C 846.752 382.075 847.612 378.864 847.612 375.594 C 847.6 365.313 839.271 356.98 828.991 356.969 Z" fill="#1d4ed8" style=""/>
    <path id="f1f767dc-4b88-4f47-9e03-7555881e6705-1005" data-name="Path 395" d="M 827.049 383.071 C 826.609 383.072 826.18 382.929 825.827 382.665 L 825.804 382.649 L 821.2 379.125 C 819.95 378.165 820.206 376.213 821.661 375.609 C 822.337 375.329 823.11 375.431 823.69 375.876 L 826.673 378.163 L 833.722 368.965 C 834.409 368.068 835.693 367.899 836.59 368.586 L 836.546 368.648 L 836.591 368.586 C 837.487 369.275 837.657 370.559 836.969 371.456 L 828.679 382.27 C 828.29 382.775 827.689 383.071 827.051 383.069 L 827.049 383.071 Z" fill="#1d4ed8" style=""/>
    <path d="M 887.849 396.169 C 872.014 396.169 862.117 379.023 870.035 365.306 C 877.952 351.589 897.746 351.589 905.663 365.306 C 907.468 368.434 908.418 371.983 908.418 375.594 C 908.406 386.952 899.204 396.157 887.849 396.169 Z M 887.849 356.969 C 873.515 356.969 864.555 372.489 871.723 384.907 C 878.89 397.324 896.808 397.324 903.975 384.907 C 905.609 382.075 906.47 378.864 906.47 375.594 C 906.458 365.313 898.128 356.98 887.849 356.969 Z" fill="#e6e6e6" style=""/>
    <path d="M 895.253 382.713 C 894.739 383.227 893.906 383.227 893.391 382.713 L 888.455 377.776 C 888.226 377.547 887.855 377.547 887.625 377.776 L 882.689 382.713 C 881.972 383.43 880.749 383.101 880.487 382.122 C 880.365 381.668 880.495 381.183 880.827 380.85 L 885.763 375.913 C 885.992 375.684 885.992 375.313 885.763 375.083 L 880.827 370.146 C 880.111 369.429 880.438 368.205 881.417 367.943 C 881.872 367.82 882.356 367.951 882.689 368.284 L 887.625 373.221 C 887.855 373.45 888.226 373.449 888.455 373.221 L 893.391 368.284 C 894.108 367.567 895.332 367.895 895.594 368.874 C 895.716 369.329 895.585 369.813 895.253 370.146 L 890.317 375.083 C 890.089 375.313 890.089 375.684 890.317 375.913 L 895.253 380.85 C 895.766 381.366 895.766 382.199 895.253 382.713 Z" fill="#e6e6e6" style=""/>
    <path d="M 828.991 461.492 C 813.156 461.492 803.26 444.346 811.177 430.63 C 819.094 416.912 838.888 416.912 846.806 430.63 C 848.611 433.757 849.562 437.305 849.562 440.917 C 849.548 452.275 840.346 461.479 828.991 461.492 Z M 828.991 422.291 C 814.657 422.291 805.698 437.813 812.865 450.23 C 820.032 462.647 837.95 462.647 845.117 450.23 C 846.752 447.399 847.612 444.186 847.612 440.917 C 847.6 430.635 839.271 422.303 828.991 422.291 Z" fill="#1d4ed8" style=""/>
    <path id="a793c70c-1521-4e6e-9b61-9683a9490971-1006" data-name="Path 395" d="M 827.049 448.394 C 826.609 448.394 826.18 448.252 825.827 447.987 L 825.804 447.971 L 821.2 444.447 C 819.95 443.488 820.206 441.535 821.661 440.932 C 822.337 440.652 823.11 440.753 823.69 441.198 L 826.673 443.486 L 833.722 434.288 C 834.409 433.392 835.693 433.221 836.59 433.909 L 836.59 433.91 L 836.546 433.97 L 836.591 433.91 C 837.487 434.598 837.657 435.882 836.969 436.779 L 828.679 447.593 C 828.29 448.098 827.689 448.393 827.051 448.391 L 827.049 448.394 Z" fill="#1d4ed8" style=""/>
    <path d="M 887.849 461.492 C 872.014 461.492 862.117 444.346 870.035 430.63 C 877.952 416.912 897.746 416.912 905.663 430.63 C 907.468 433.757 908.418 437.305 908.418 440.917 C 908.406 452.275 899.204 461.479 887.849 461.492 Z M 887.849 422.291 C 873.515 422.291 864.555 437.813 871.723 450.23 C 878.89 462.647 896.808 462.647 903.975 450.23 C 905.609 447.399 906.47 444.186 906.47 440.917 C 906.458 430.635 898.128 422.303 887.849 422.291 Z" fill="#e6e6e6" style=""/>
    <path d="M 895.253 448.036 C 894.739 448.549 893.906 448.549 893.391 448.036 L 888.455 443.099 C 888.226 442.869 887.855 442.869 887.625 443.099 L 882.689 448.036 C 881.972 448.753 880.749 448.425 880.487 447.446 C 880.365 446.991 880.495 446.506 880.827 446.173 L 885.763 441.236 C 885.992 441.007 885.992 440.636 885.763 440.406 L 880.827 435.469 C 880.111 434.752 880.438 433.528 881.418 433.265 C 881.872 433.144 882.357 433.273 882.689 433.607 L 887.625 438.544 C 887.855 438.773 888.226 438.773 888.455 438.544 L 893.391 433.607 C 894.108 432.89 895.332 433.217 895.594 434.197 C 895.716 434.651 895.585 435.137 895.253 435.469 L 890.317 440.406 C 890.089 440.636 890.089 441.007 890.317 441.237 L 895.253 446.174 C 895.766 446.688 895.766 447.521 895.253 448.036 Z" fill="#e6e6e6" style=""/>
    <path d="M 828.991 526.815 C 813.156 526.815 803.26 509.669 811.177 495.952 C 819.094 482.236 838.888 482.236 846.806 495.952 C 848.611 499.08 849.562 502.628 849.562 506.24 C 849.548 517.598 840.346 526.802 828.991 526.815 Z M 828.991 487.615 C 814.657 487.615 805.698 503.136 812.865 515.552 C 820.032 527.969 837.95 527.969 845.117 515.552 C 846.752 512.721 847.612 509.509 847.612 506.24 C 847.6 495.958 839.271 487.626 828.991 487.615 Z" fill="#e6e6e6" style=""/>
    <path id="b02a55c8-7c5c-410c-bde7-66a7a3b003d7-1007" data-name="Path 395" d="M 827.049 513.716 C 826.609 513.717 826.18 513.575 825.827 513.31 L 825.804 513.294 L 821.2 509.77 C 819.95 508.812 820.206 506.859 821.661 506.255 C 822.337 505.974 823.11 506.076 823.69 506.521 L 826.673 508.809 L 833.722 499.611 C 834.409 498.714 835.693 498.545 836.59 499.232 L 836.59 499.233 L 836.546 499.293 L 836.591 499.233 C 837.487 499.921 837.657 501.204 836.969 502.102 L 828.679 512.916 C 828.29 513.421 827.689 513.716 827.051 513.714 L 827.049 513.716 Z" fill="#e6e6e6" style=""/>
    <path d="M 887.849 526.815 C 872.014 526.815 862.117 509.669 870.035 495.952 C 877.952 482.236 897.746 482.236 905.663 495.952 C 907.468 499.08 908.418 502.628 908.418 506.24 C 908.406 517.598 899.204 526.802 887.849 526.815 Z M 887.849 487.615 C 873.515 487.615 864.555 503.136 871.723 515.552 C 878.89 527.969 896.808 527.969 903.975 515.552 C 905.609 512.721 906.47 509.509 906.47 506.24 C 906.458 495.958 898.128 487.626 887.849 487.615 Z" fill="#e6e6e6" style=""/>
    <path d="M 895.253 513.358 C 894.739 513.872 893.906 513.872 893.391 513.358 L 888.455 508.421 C 888.226 508.193 887.855 508.193 887.625 508.421 L 882.689 513.358 C 881.972 514.075 880.749 513.748 880.487 512.768 C 880.365 512.314 880.495 511.829 880.827 511.496 L 885.763 506.559 C 885.992 506.329 885.992 505.958 885.763 505.729 L 880.827 500.791 C 880.111 500.074 880.438 498.851 881.418 498.588 C 881.872 498.467 882.357 498.597 882.689 498.929 L 887.625 503.866 C 887.855 504.096 888.226 504.096 888.455 503.866 L 893.391 498.929 C 894.109 498.214 895.333 498.545 895.593 499.525 C 895.713 499.978 895.583 500.46 895.253 500.792 L 890.317 505.73 C 890.089 505.959 890.089 506.33 890.317 506.559 L 895.253 511.496 C 895.766 512.011 895.766 512.844 895.253 513.358 Z" fill="#e6e6e6" style=""/>
    <path d="M 1170.163 731.705 L 781.686 731.705 C 780.901 731.705 780.411 730.856 780.803 730.176 C 780.986 729.86 781.322 729.666 781.686 729.666 L 1170.163 729.666 C 1170.948 729.666 1171.439 730.515 1171.046 731.196 C 1170.865 731.511 1170.527 731.705 1170.163 731.705 Z" fill="#3f3d56" style=""/>
    <path d="M 836.992 453.365 C 842.455 456.668 849.575 454.231 851.866 448.272 L 888.282 449.484 L 878.391 433.336 L 845.326 434.659 C 837.747 432.305 830.463 439.041 832.214 446.783 C 832.838 449.539 834.565 451.919 836.992 453.365 Z" style="fill: rgb(255, 219, 172);"/>
    <path d="M 1042.318 532.263 C 1046.526 527.462 1045.373 520.023 1039.909 516.723 L 1047.48 481.073 L 1029.853 487.987 L 1025.365 520.78 C 1021.721 527.831 1027.075 536.184 1035.002 535.815 C 1037.824 535.685 1040.469 534.399 1042.318 532.263 Z" style="fill: rgb(255, 219, 172);"/>
    <polygon points="957.012 718.057 944.511 718.056 938.565 669.828 957.014 669.829 957.012 718.057" style="fill: rgb(255, 219, 172);"/>
    <path d="M 960.199 730.178 L 919.893 730.176 L 919.893 729.666 C 919.893 721 926.918 713.974 935.581 713.974 L 935.582 713.974 L 960.2 713.975 L 960.199 730.178 Z" fill="#2f2e41" style=""/>
    <polygon points="1018.189 718.057 1005.689 718.056 999.742 669.828 1018.191 669.829 1018.189 718.057" style="fill: rgb(255, 219, 172);"/>
    <path d="M 1021.376 730.178 L 981.071 730.176 L 981.071 729.666 C 981.071 721 988.095 713.974 996.759 713.974 L 996.76 713.974 L 1021.378 713.975 L 1021.376 730.178 Z" fill="#2f2e41" style=""/>
    <path d="M 958.314 692.874 L 940.619 692.166 C 938.107 692.058 936.147 689.954 936.216 687.44 L 941.201 523.872 L 941.527 523.755 C 972.541 512.533 998.196 513.382 1019.962 526.346 L 1020.206 526.491 L 1023.192 685.799 C 1023.241 688.367 1021.174 690.475 1018.605 690.475 L 1003.684 690.475 C 1001.493 690.471 999.609 688.92 999.181 686.771 L 978.855 583.346 C 978.629 582.19 977.236 581.713 976.349 582.487 C 976.064 582.736 975.882 583.081 975.836 583.457 L 963.052 688.841 C 962.761 691.14 960.812 692.866 958.495 692.877 C 958.435 692.877 958.375 692.876 958.314 692.874 Z" fill="#2f2e41" style=""/>
    <circle cx="964.804" cy="362.721" r="25.043" style="fill: rgb(255, 219, 172);" transform="matrix(1, 0, 0, 1.000251, 10.725096, -7.432011)"/>
    <path d="M 857.796 447.446 C 857.518 446.554 857.517 445.599 857.795 444.707 L 860.389 436.391 C 860.969 434.549 862.637 433.264 864.566 433.174 L 897.422 431.721 L 950.727 404.39 C 961.565 400.927 972.088 410.498 969.667 421.619 C 968.541 426.795 964.732 430.971 959.684 432.57 L 927.017 451.522 C 917.104 457.275 905.437 459.231 894.19 457.025 L 861.292 450.579 C 860.014 450.328 858.901 449.544 858.234 448.425 C 858.05 448.117 857.903 447.788 857.796 447.446 Z" fill="#ccc" style=""/>
    <path d="M 1041.248 509.183 C 1040.37 509.499 1039.416 509.541 1038.512 509.301 L 1030.096 507.063 C 1028.23 506.561 1026.876 504.948 1026.705 503.025 L 1023.853 470.253 L 994.282 418.148 C 990.363 407.463 999.476 396.541 1010.687 398.488 C 1015.903 399.394 1020.237 403.021 1022.047 407.997 L 1042.37 439.834 C 1048.539 449.496 1050.99 461.07 1049.266 472.404 L 1044.228 505.555 C 1044.032 506.844 1043.297 507.989 1042.207 508.704 C 1041.908 508.9 1041.585 509.062 1041.248 509.183 Z" fill="#ccc" style=""/>
    <path d="M 948.137 399.864 C 956.85 390.307 969.428 385.221 982.332 386.035 C 982.751 386.061 983.168 386.09 983.583 386.122 L 983.584 386.122 C 995.8 387.089 1007.007 393.276 1014.335 403.1 C 1021.786 413.061 1024.582 425.752 1022.008 437.923 C 1017.152 460.915 1018.381 484.777 1025.573 507.148 L 1032.292 528.014 C 1033.214 530.88 1031.175 533.843 1028.17 534.003 L 993.824 535.85 L 985.035 520.665 L 985.035 536.323 L 943.291 538.568 C 943.207 538.573 943.124 538.575 943.043 538.575 C 940.363 538.574 938.256 536.287 938.471 533.616 L 943.189 475.095 L 937.271 435.347 C 935.33 422.483 939.326 409.434 948.137 399.864 Z" fill="#ccc" style=""/>
    <path d="M 992.934 379.293 C 990.615 380.627 981.45 381.512 980.797 378.917 L 980.783 378.861 C 980.328 376.959 980.707 374.974 980.836 373.023 C 980.967 371.073 980.776 368.93 979.449 367.496 C 976.973 364.823 972.568 366.24 968.988 365.565 C 964.651 364.596 961.707 360.554 962.116 356.128 C 962.167 355.722 962.247 355.316 962.337 354.911 C 963.298 350.5 959.778 346.393 955.274 346.668 C 951.657 346.875 947.751 347.972 944.758 345.291 C 942.443 343.219 941.878 337.824 942.896 334.888 C 944.605 329.953 955.553 327.37 960.334 325.949 C 972.306 322.489 985.2 324.605 995.439 331.712 C 998.458 333.84 1001.279 336.515 1002.565 339.979 C 1003.852 343.441 1003.231 347.811 1000.329 350.098 C 1004.908 354.946 1006.556 361.865 1004.659 368.258 C 1003.225 372.877 996.386 377.306 992.934 379.293 Z" fill="#2f2e41" style=""/>
    <path d="M 647.304 380.578 L 486.957 380.578 C 480.954 380.571 477.21 374.067 480.217 368.87 C 481.61 366.464 484.177 364.981 486.957 364.978 L 647.304 364.978 C 653.307 364.985 657.051 371.489 654.044 376.685 C 652.651 379.092 650.083 380.575 647.304 380.578 Z" fill="#1d4ed8" style=""/>
    <path d="M 746.3 387.23 L 471.002 387.23 C 470.218 387.23 469.726 386.379 470.119 385.7 C 470.301 385.384 470.638 385.19 471.002 385.19 L 746.3 385.19 C 747.085 385.19 747.576 386.04 747.183 386.72 C 747.002 387.035 746.665 387.23 746.3 387.23 Z" fill="#3f3d56" style=""/>
    <path d="M 647.304 445.9 L 486.957 445.9 C 480.954 445.9 477.202 439.401 480.204 434.201 C 481.597 431.787 484.171 430.301 486.957 430.301 L 647.304 430.301 C 653.307 430.309 657.051 436.812 654.044 442.009 C 652.651 444.414 650.083 445.897 647.304 445.9 Z" fill="#1d4ed8" style=""/>
    <path d="M 746.3 452.553 L 471.002 452.553 C 470.218 452.553 469.726 451.703 470.119 451.023 C 470.301 450.707 470.638 450.513 471.002 450.513 L 746.3 450.513 C 747.085 450.513 747.576 451.363 747.183 452.043 C 747.002 452.358 746.665 452.553 746.3 452.553 Z" fill="#3f3d56" style=""/>
    <path d="M 647.304 511.224 L 486.957 511.224 C 480.954 511.224 477.202 504.724 480.204 499.524 C 481.597 497.111 484.171 495.624 486.957 495.624 L 647.304 495.624 C 653.307 495.631 657.051 502.135 654.044 507.332 C 652.651 509.738 650.083 511.221 647.304 511.224 Z" fill="#f2f2f2" style=""/>
    <path d="M 746.3 517.875 L 471.002 517.875 C 470.218 517.875 469.726 517.026 470.119 516.346 C 470.301 516.029 470.638 515.836 471.002 515.836 L 746.3 515.836 C 747.085 515.836 747.576 516.685 747.183 517.365 C 747.002 517.681 746.665 517.875 746.3 517.875 Z" fill="#3f3d56" style=""/>
  </g>
</svg>