<?xml version="1.0" encoding="utf-8"?>
<svg viewBox="0 0 825.2 591.4" xmlns="http://www.w3.org/2000/svg">
  <path d="M 406.688 543.084 C 398.542 543.058 390.434 542.008 382.55 539.962 L 380.996 539.533 L 379.555 538.81 C 327.444 512.683 283.48 478.171 248.884 436.235 C 220.249 401.318 197.92 361.672 182.909 319.08 C 164.956 268.09 156.319 214.285 157.41 160.237 C 157.433 159.102 157.45 158.226 157.45 157.622 C 157.45 131.349 172.034 108.296 194.605 98.892 C 211.878 91.695 368.718 27.274 380.049 22.62 C 401.391 11.927 424.158 20.853 427.802 22.412 C 435.973 25.754 580.963 85.055 612.294 99.975 C 644.584 115.352 653.199 142.975 653.199 156.872 C 653.199 219.791 642.303 278.596 620.811 331.649 C 603.455 374.591 578.855 414.237 548.085 448.856 C 488.715 515.667 429.329 539.353 428.757 539.561 C 421.661 542.004 414.192 543.196 406.688 543.084 Z M 392.721 508.491 C 397.871 509.646 409.724 511.378 417.45 508.56 C 427.264 504.979 476.968 479.206 523.415 426.935 C 587.589 354.718 620.152 263.934 620.201 157.104 C 620.085 154.941 618.548 139.504 598.107 129.77 C 567.382 115.139 416.678 53.517 415.16 52.896 L 414.745 52.72 C 411.585 51.396 401.534 48.608 394.606 52.24 L 393.219 52.886 C 391.539 53.576 225.053 121.955 207.297 129.354 C 194.877 134.529 190.45 147.35 190.45 157.622 C 190.45 158.374 190.43 159.466 190.403 160.876 C 188.984 233.973 205.899 413.84 392.721 508.491 Z" fill="#3f3d56" style=""/>
  <path d="M 388.955 35.619 C 388.955 35.619 220.955 104.618 202.954 112.118 C 184.955 119.618 175.955 137.618 175.955 155.618 C 175.955 173.618 162.454 408.493 388.955 522.055 C 388.955 522.055 409.51 527.743 425.108 522.055 C 440.705 516.367 638.705 420.367 638.705 154.868 C 638.705 154.868 638.705 127.868 607.204 112.867 C 575.703 97.868 423.407 35.619 423.407 35.619 C 423.407 35.619 404.703 27.369 388.955 35.619 Z" fill="#1d4ed8" style=""/>
  <path d="M 404.95 91.622 L 404.95 459.713 C 404.95 459.713 235.45 378.123 236.951 163.623 L 404.95 91.622 Z" opacity="0.1" style=""/>
  <path d="M 667.002 568.297 L 169.617 568.297 C 168.612 568.297 167.984 567.464 168.486 566.797 C 168.72 566.488 169.151 566.297 169.617 566.297 L 667.002 566.297 C 668.007 566.297 668.635 567.131 668.132 567.797 C 667.9 568.107 667.469 568.297 667.002 568.297 Z" fill="#cacaca"/>
  <text style="fill: rgb(247, 247, 247); font-family: Arial, sans-serif; font-size: 142px; font-weight: 700; letter-spacing: 20px; white-space: pre;" x="234.186" y="318.13">VPN</text>
</svg>